<?xml version="1.0" encoding="UTF-8"?>
<svg width="29px" height="25px" viewBox="0 0 29 25" version="1.1" xmlns="http://www.w3.org/2000/svg" xmlns:xlink="http://www.w3.org/1999/xlink">
    <!-- Generator: Sketch 50 (54983) - http://www.bohemiancoding.com/sketch -->
    <title>heart</title>
    <desc>Created with Sketch.</desc>
    <defs></defs>
    <g id="heart" stroke="none" stroke-width="1" fill="none" fill-rule="evenodd">
        <path d="M14.5,25 C14.219494,25 13.9821429,24.9023438 13.7879464,24.7070312 L3.68973214,14.9088542 C3.58184524,14.8220486 3.43350074,14.6809896 3.24469866,14.4856771 C3.05589658,14.2903646 2.75651042,13.9350043 2.34654018,13.4195964 C1.93656994,12.9041884 1.56975446,12.375217 1.24609375,11.8326823 C0.922433036,11.2901476 0.633835565,10.6336806 0.380301339,9.86328125 C0.126767113,9.09288194 0,8.34418403 0,7.6171875 C0,5.23003472 0.685081845,3.36371528 2.05524554,2.01822917 C3.42540923,0.672743056 5.3188244,0 7.73549107,0 C8.40438988,0 9.08677455,0.116644965 9.78264509,0.349934896 C10.4785156,0.583224826 11.1258371,0.897894965 11.7246094,1.29394531 C12.3233817,1.68999566 12.8385417,2.06163194 13.2700893,2.40885417 C13.7016369,2.75607639 14.1116071,3.125 14.5,3.515625 C14.8883929,3.125 15.2983631,2.75607639 15.7299107,2.40885417 C16.1614583,2.06163194 16.6766183,1.68999566 17.2753906,1.29394531 C17.8741629,0.897894965 18.5214844,0.583224826 19.2173549,0.349934896 C19.9132254,0.116644965 20.5956101,0 21.2645089,0 C23.6811756,0 25.5745908,0.672743056 26.9447545,2.01822917 C28.3149182,3.36371528 29,5.23003472 29,7.6171875 C29,10.015191 27.7646949,12.4565972 25.2940848,14.9414062 L15.2120536,24.7070312 C15.0178571,24.9023438 14.780506,25 14.5,25 Z" id="Shape" fill="#ED3D95" fill-rule="nonzero"></path>
    </g>
</svg>