<?xml version="1.0" encoding="UTF-8"?>
<svg width="280px" height="80px" viewBox="0 0 280 80" version="1.1" xmlns="http://www.w3.org/2000/svg" xmlns:xlink="http://www.w3.org/1999/xlink">
    <!-- Generator: Sketch 50.2 (55047) - http://www.bohemiancoding.com/sketch -->
    <title>logoFR</title>
    <desc>Created with Sketch.</desc>
    <defs></defs>
    <g id="logoFR" stroke="none" stroke-width="1" fill="none" fill-rule="evenodd">
        <g id="Group-3" transform="translate(4.000000, 3.000000)">
            <path d="M0.43,21.498 C0.43,16.584 2.848,12.112 7.84,12.112 C10.336,12.112 13.196,13.204 14.34,15.544 C13.43,16.714 12.026,17.286 11.402,17.754 C10.752,16.272 9.582,15.882 8.308,15.882 C5.318,15.882 4.512,18.17 4.512,21.368 C4.512,23.526 4.876,26.594 8.178,26.594 C9.946,26.594 10.57,25.71 11.714,24.02 C12.702,24.046 13.846,24.8 14.678,25.268 C13.924,27.998 11.61,30.286 7.84,30.286 C3.03,30.286 0.43,26.568 0.43,21.498 Z M32.462,26.568 L32.566,26.776 C32.67,27.712 32.904,28.622 32.904,29.558 C32.904,30.364 31.136,30.312 30.538,30.312 C27.73,30.312 26.222,27.998 25.182,25.216 L24.61,23.526 C24.194,23.292 23.726,23.318 23.258,23.318 C22.842,23.318 22.4,23.318 21.984,23.37 C21.932,23.89 21.932,24.436 21.932,24.956 C21.958,26.568 22.088,28.258 21.932,29.87 C21.074,30.026 20.268,30.052 19.41,30.052 L18.344,30.026 C17.824,29.168 18.032,16.428 18.032,14.296 C18.032,13.698 18.032,13.1 18.136,12.528 C19.228,12.32 20.476,12.424 21.568,12.424 C25.676,12.424 31.188,12.476 31.188,17.988 C31.188,20.224 30.148,21.498 28.042,22.798 C28.562,24.618 30.07,26.802 31.24,26.724 C31.552,26.698 31.916,26.776 32.462,26.568 Z M21.932,18.716 L21.932,20.25 C22.062,20.432 22.296,20.484 22.504,20.484 C24.376,20.484 27.392,20.614 27.392,18.014 C27.392,15.518 24.48,15.648 22.686,15.648 C21.828,15.648 21.958,16.038 21.958,16.766 C21.958,17.416 21.932,18.092 21.932,18.716 Z M46.918,30.026 L42.914,30.026 C40.652,30.026 37.974,30.312 35.816,29.896 C35.296,25.45 35.738,19.288 35.738,14.634 L35.79,12.528 C36.466,12.45 37.168,12.45 37.87,12.45 L45.774,12.45 L47.022,12.502 C47.074,13.022 47.1,13.568 47.1,14.088 C47.1,14.582 47.1,15.076 47.048,15.57 C46.606,15.596 46.086,15.674 45.644,15.674 C43.564,15.674 41.484,15.492 39.43,15.804 C39.378,16.142 39.378,16.48 39.378,16.818 L39.404,19.418 C41.224,19.6 42.888,19.418 45.098,19.418 C45.15,19.418 45.228,19.678 45.28,19.964 L45.124,22.148 C45.124,22.486 44.292,22.512 43.72,22.512 C42.342,22.512 40.808,22.486 39.43,22.538 L39.378,23.968 L39.378,26.308 C40.704,27.088 44.89,26.438 46.944,26.62 C47.048,27.192 47.074,27.79 47.074,28.362 C47.074,28.934 46.996,29.48 46.918,30.026 Z M40.444,11.384 C40.028,11.306 39.326,10.188 39.326,9.772 C39.326,9.434 43.72,6.6 44.344,6.6 C44.916,6.6 45.696,8.16 45.696,8.68 C45.696,9.356 41.198,11.046 40.444,11.384 Z M62.024,30.026 L58.02,30.026 C55.758,30.026 53.08,30.312 50.922,29.896 C50.402,25.45 50.844,19.288 50.844,14.634 L50.896,12.528 C51.572,12.45 52.274,12.45 52.976,12.45 L60.88,12.45 L62.128,12.502 C62.18,13.022 62.206,13.568 62.206,14.088 C62.206,14.582 62.206,15.076 62.154,15.57 C61.712,15.596 61.192,15.674 60.75,15.674 C58.67,15.674 56.59,15.492 54.536,15.804 C54.484,16.142 54.484,16.48 54.484,16.818 L54.51,19.418 C56.33,19.6 57.994,19.418 60.204,19.418 C60.256,19.418 60.334,19.678 60.386,19.964 L60.23,22.148 C60.23,22.486 59.398,22.512 58.826,22.512 C57.448,22.512 55.914,22.486 54.536,22.538 L54.484,23.968 L54.484,26.308 C55.81,27.088 59.996,26.438 62.05,26.62 C62.154,27.192 62.18,27.79 62.18,28.362 C62.18,28.934 62.102,29.48 62.024,30.026 Z M76.428,30.026 L75.492,29.974 C75.44,29.506 75.414,29.038 75.414,28.57 C75.414,24.384 75.544,20.198 75.284,16.038 C73.828,15.96 72.372,15.986 70.916,15.908 C70.838,15.128 70.786,14.374 70.786,13.594 C70.786,13.23 70.786,12.866 70.864,12.528 C73.802,12.372 76.766,12.398 79.704,12.398 C80.952,12.398 82.2,12.424 83.448,12.606 C83.656,13.412 83.63,14.27 83.63,15.076 L83.578,15.882 L82.46,15.934 C81.264,15.934 80.12,15.856 78.924,15.96 C78.638,20.562 79.34,25.372 78.794,29.922 C78.014,30.078 77.208,30.026 76.428,30.026 Z M93.562,30.312 C87.998,30.312 85.866,25.944 85.866,21.004 C85.866,16.948 88.414,12.19 92.99,12.19 C98.164,12.19 100.816,16.246 100.816,21.108 C100.816,25.476 98.502,30.312 93.562,30.312 Z M93.354,26.62 C96.422,26.62 97.228,23.578 97.228,21.056 C97.228,18.69 96.5,15.674 93.51,15.674 C90.104,15.674 89.532,19.418 89.532,22.07 C89.532,24.358 90.858,26.62 93.354,26.62 Z M118.912,29.948 L117.326,29.974 C116.026,29.974 114.726,29.948 113.426,29.792 C111.424,25.866 109.526,22.174 108.486,17.884 L108.33,17.884 L108.304,21.108 C108.304,24.02 108.564,27.01 108.304,29.922 C108.018,29.974 107.732,30 107.472,30 L105.002,30 L104.612,29.974 C104.56,28.518 104.508,27.088 104.508,25.632 L104.508,17.728 C104.508,15.96 104.508,14.218 104.586,12.45 L106.12,12.424 L107.94,12.424 C108.538,12.424 109.136,12.554 109.734,12.632 C111.45,16.792 113.66,21.004 114.986,25.216 L115.168,25.216 C115.194,23.994 115.246,22.772 115.246,21.55 C115.246,18.56 115.012,15.544 115.194,12.554 C115.714,12.45 116.416,12.424 116.936,12.424 C117.56,12.424 118.184,12.424 118.782,12.528 C119.198,17.026 118.938,22.018 118.938,26.568 C118.938,27.686 118.938,28.83 118.912,29.948 Z M130.352,29.974 C129.91,27.088 130.17,23.578 130.17,20.64 C130.17,18.248 129.858,14.842 130.352,12.58 C130.846,12.45 131.366,12.424 131.86,12.424 C136.228,12.424 143.274,11.54 143.274,17.936 C143.274,21.81 139.92,23.916 136.358,23.916 C135.63,23.916 134.902,23.864 134.148,23.942 C134.07,25.06 134.07,26.204 134.07,27.322 C134.07,28.206 134.174,29.064 134.044,29.948 C133.446,30.078 132.718,30.078 132.12,30.078 C131.548,30.078 130.924,30.104 130.352,29.974 Z M134.174,20.432 C134.278,20.484 134.408,20.51 134.538,20.51 C136.488,20.51 139.452,20.614 139.452,17.936 C139.452,15.596 137.398,15.258 135.526,15.258 C135.136,15.258 134.07,15.102 134.07,15.674 C134.07,16.662 134.018,17.676 134.018,18.664 C134.018,19.21 134.018,19.912 134.174,20.432 Z M161.058,26.568 L161.162,26.776 C161.266,27.712 161.5,28.622 161.5,29.558 C161.5,30.364 159.732,30.312 159.134,30.312 C156.326,30.312 154.818,27.998 153.778,25.216 L153.206,23.526 C152.79,23.292 152.322,23.318 151.854,23.318 C151.438,23.318 150.996,23.318 150.58,23.37 C150.528,23.89 150.528,24.436 150.528,24.956 C150.554,26.568 150.684,28.258 150.528,29.87 C149.67,30.026 148.864,30.052 148.006,30.052 L146.94,30.026 C146.42,29.168 146.628,16.428 146.628,14.296 C146.628,13.698 146.628,13.1 146.732,12.528 C147.824,12.32 149.072,12.424 150.164,12.424 C154.272,12.424 159.784,12.476 159.784,17.988 C159.784,20.224 158.744,21.498 156.638,22.798 C157.158,24.618 158.666,26.802 159.836,26.724 C160.148,26.698 160.512,26.776 161.058,26.568 Z M150.528,18.716 L150.528,20.25 C150.658,20.432 150.892,20.484 151.1,20.484 C152.972,20.484 155.988,20.614 155.988,18.014 C155.988,15.518 153.076,15.648 151.282,15.648 C150.424,15.648 150.554,16.038 150.554,16.766 C150.554,17.416 150.528,18.092 150.528,18.716 Z M171.016,30.312 C165.452,30.312 163.32,25.944 163.32,21.004 C163.32,16.948 165.868,12.19 170.444,12.19 C175.618,12.19 178.27,16.246 178.27,21.108 C178.27,25.476 175.956,30.312 171.016,30.312 Z M170.808,26.62 C173.876,26.62 174.682,23.578 174.682,21.056 C174.682,18.69 173.954,15.674 170.964,15.674 C167.558,15.674 166.986,19.418 166.986,22.07 C166.986,24.358 168.312,26.62 170.808,26.62 Z M182.248,29.974 C181.806,27.088 182.066,23.578 182.066,20.64 C182.066,18.248 181.754,14.842 182.248,12.58 C182.742,12.45 183.262,12.424 183.756,12.424 C188.124,12.424 195.17,11.54 195.17,17.936 C195.17,21.81 191.816,23.916 188.254,23.916 C187.526,23.916 186.798,23.864 186.044,23.942 C185.966,25.06 185.966,26.204 185.966,27.322 C185.966,28.206 186.07,29.064 185.94,29.948 C185.342,30.078 184.614,30.078 184.016,30.078 C183.444,30.078 182.82,30.104 182.248,29.974 Z M186.07,20.432 C186.174,20.484 186.304,20.51 186.434,20.51 C188.384,20.51 191.348,20.614 191.348,17.936 C191.348,15.596 189.294,15.258 187.422,15.258 C187.032,15.258 185.966,15.102 185.966,15.674 C185.966,16.662 185.914,17.676 185.914,18.664 C185.914,19.21 185.914,19.912 186.07,20.432 Z M212.954,26.568 L213.058,26.776 C213.162,27.712 213.396,28.622 213.396,29.558 C213.396,30.364 211.628,30.312 211.03,30.312 C208.222,30.312 206.714,27.998 205.674,25.216 L205.102,23.526 C204.686,23.292 204.218,23.318 203.75,23.318 C203.334,23.318 202.892,23.318 202.476,23.37 C202.424,23.89 202.424,24.436 202.424,24.956 C202.45,26.568 202.58,28.258 202.424,29.87 C201.566,30.026 200.76,30.052 199.902,30.052 L198.836,30.026 C198.316,29.168 198.524,16.428 198.524,14.296 C198.524,13.698 198.524,13.1 198.628,12.528 C199.72,12.32 200.968,12.424 202.06,12.424 C206.168,12.424 211.68,12.476 211.68,17.988 C211.68,20.224 210.64,21.498 208.534,22.798 C209.054,24.618 210.562,26.802 211.732,26.724 C212.044,26.698 212.408,26.776 212.954,26.568 Z M202.424,18.716 L202.424,20.25 C202.554,20.432 202.788,20.484 202.996,20.484 C204.868,20.484 207.884,20.614 207.884,18.014 C207.884,15.518 204.972,15.648 203.178,15.648 C202.32,15.648 202.45,16.038 202.45,16.766 C202.45,17.416 202.424,18.092 202.424,18.716 Z M227.41,30.026 L223.406,30.026 C221.144,30.026 218.466,30.312 216.308,29.896 C215.788,25.45 216.23,19.288 216.23,14.634 L216.282,12.528 C216.958,12.45 217.66,12.45 218.362,12.45 L226.266,12.45 L227.514,12.502 C227.566,13.022 227.592,13.568 227.592,14.088 C227.592,14.582 227.592,15.076 227.54,15.57 C227.098,15.596 226.578,15.674 226.136,15.674 C224.056,15.674 221.976,15.492 219.922,15.804 C219.87,16.142 219.87,16.48 219.87,16.818 L219.896,19.418 C221.716,19.6 223.38,19.418 225.59,19.418 C225.642,19.418 225.72,19.678 225.772,19.964 L225.616,22.148 C225.616,22.486 224.784,22.512 224.212,22.512 C222.834,22.512 221.3,22.486 219.922,22.538 L219.87,23.968 L219.87,26.308 C221.196,27.088 225.382,26.438 227.436,26.62 C227.54,27.192 227.566,27.79 227.566,28.362 C227.566,28.934 227.488,29.48 227.41,30.026 Z" id="Crée-ton-propre" fill="#FFE546"></path>
            <path d="M62.1412693,67.6146318 L60.9390943,67.5478443 C60.8723068,66.9467568 60.838913,66.3456693 60.838913,65.7445819 C60.838913,60.3681882 61.0058818,54.9917946 60.6719443,49.6487946 C58.8018943,49.5486134 56.9318443,49.5820071 55.0617944,49.4818259 C54.9616131,48.4800134 54.8948256,47.5115947 54.8948256,46.5097822 C54.8948256,46.0422697 54.8948256,45.5747572 54.9950069,45.1406385 C58.7685006,44.940276 62.575388,44.9736697 66.3488817,44.9736697 C67.9517816,44.9736697 69.5546816,45.0070635 71.1575816,45.2408197 C71.4247316,46.276026 71.3913378,47.3780197 71.3913378,48.4132259 L71.3245503,49.4484322 L69.8886191,49.5152197 C68.3525066,49.5152197 66.8831817,49.4150384 65.3470692,49.5486134 C64.979738,55.459307 65.8813692,61.6371507 65.1801004,67.4810568 C64.178288,67.6814193 63.1430817,67.6146318 62.1412693,67.6146318 Z M84.1477501,67.9819631 C77.0014877,67.9819631 74.2632003,62.3718132 74.2632003,56.0270008 C74.2632003,50.8175759 77.5357877,44.7065197 83.4130876,44.7065197 C90.0584438,44.7065197 93.4646062,49.9159446 93.4646062,56.1605758 C93.4646062,61.7707257 90.4925625,67.9819631 84.1477501,67.9819631 Z M83.8806001,63.2400507 C87.8210625,63.2400507 88.8562688,59.332982 88.8562688,56.0937883 C88.8562688,53.0549571 87.9212438,49.1812822 84.0809626,49.1812822 C79.7063814,49.1812822 78.971719,53.9899821 78.971719,57.3961445 C78.971719,60.3347945 80.6748002,63.2400507 83.8806001,63.2400507 Z M110.361843,57.0956008 L110.361843,50.2164884 C110.361843,48.6135884 109.660575,44.8734885 111.263475,44.940276 L112.064925,45.0070635 L114.836606,45.0404572 C114.936787,46.7101447 115.070362,48.4132259 115.070362,50.1163071 C115.070362,57.062207 116.172356,67.9151756 106.387987,67.9151756 C95.8689561,67.9151756 98.2065186,55.459307 98.2065186,48.3130447 C98.2065186,47.2444447 98.1731249,46.142451 98.2733061,45.073851 L99.5756623,45.0070635 L101.579287,45.0070635 L102.814856,45.073851 L102.84825,46.3762072 C102.781462,50.0161259 101.111775,63.2066569 106.621743,63.2066569 C110.027906,63.2066569 110.361843,59.733707 110.361843,57.0956008 Z M119.645306,56.661482 C119.645306,50.3500634 122.750924,44.6063385 129.162524,44.6063385 C132.368324,44.6063385 136.041637,46.008876 137.510962,49.0143134 C136.34218,50.5170321 134.538918,51.2516946 133.737468,51.8527821 C132.902624,49.9493384 131.399906,49.4484322 129.763612,49.4484322 C125.923331,49.4484322 124.888124,52.3870821 124.888124,56.4945133 C124.888124,59.2661945 125.355637,63.2066569 129.596643,63.2066569 C131.867418,63.2066569 132.668868,62.0712694 134.138193,59.9006757 C135.407155,59.9340695 136.87648,60.9024882 137.94508,61.5035757 C136.976662,65.0099194 134.004618,67.9485693 129.162524,67.9485693 C122.984681,67.9485693 119.645306,63.1732632 119.645306,56.661482 Z M158.348661,67.6480256 L154.942499,67.6480256 C154.541774,67.6480256 154.141049,67.6146318 153.740324,67.5478443 C153.272811,65.7111881 152.872086,63.8077444 152.404574,61.9710882 L150.100405,61.9710882 C148.89823,61.9710882 147.662661,62.0044819 146.427093,62.0712694 C146.059761,63.9079256 145.625643,65.7111881 145.124737,67.5144506 L143.955955,67.5812381 L141.818755,67.5812381 C141.317849,67.5812381 140.783549,67.5144506 140.282643,67.4476631 C141.384637,60.3347945 144.289893,52.2535071 145.926186,45.073851 C146.694243,45.0404572 147.462299,44.9736697 148.230355,44.9736697 C150.067011,44.9736697 151.903668,44.940276 153.740324,45.0404572 C154.641955,48.5134072 158.415449,64.5424069 158.415449,66.8131818 L158.348661,67.6480256 Z M148.597686,57.6966883 L149.065199,57.6966883 C149.933436,57.6966883 151.03543,57.7634758 151.903668,57.5631133 C151.770093,56.0937883 151.369368,54.6912508 151.102218,53.2553196 C150.668099,50.7841821 150.801674,49.9493384 149.833255,49.9493384 C149.666286,49.9493384 149.465924,49.9493384 149.298955,49.9827321 C148.831443,52.5540508 147.762843,55.0251883 147.529086,57.6632945 C147.896418,57.6966883 148.230355,57.6966883 148.597686,57.6966883 Z M180.822655,67.5144506 L178.785636,67.5478443 C177.115948,67.5478443 175.446261,67.5144506 173.776573,67.3140881 C171.205255,62.2716319 168.767511,57.5297195 167.431761,52.0197509 L167.231399,52.0197509 L167.198005,56.1605758 C167.198005,59.9006757 167.531942,63.7409569 167.198005,67.4810568 C166.830674,67.5478443 166.463342,67.5812381 166.129405,67.5812381 L162.956999,67.5812381 L162.456092,67.5478443 C162.389305,65.6777944 162.322517,63.8411381 162.322517,61.9710882 L162.322517,51.8193884 C162.322517,49.5486134 162.322517,47.3112322 162.422699,45.0404572 L164.39293,45.0070635 L166.730492,45.0070635 C167.498549,45.0070635 168.266605,45.1740322 169.034661,45.2742135 C171.238649,50.6172134 174.077117,56.0270008 175.780198,61.4367882 L176.013955,61.4367882 C176.047348,59.867282 176.114136,58.2977757 176.114136,56.7282695 C176.114136,52.8879883 175.813592,49.0143134 176.047348,45.1740322 C176.715223,45.0404572 177.616855,45.0070635 178.28473,45.0070635 C179.08618,45.0070635 179.88763,45.0070635 180.655686,45.1406385 C181.189986,50.9177571 180.856048,57.329357 180.856048,63.1732632 C180.856048,64.6091944 180.856048,66.0785194 180.822655,67.5144506 Z M195.616086,67.9819631 C188.469823,67.9819631 185.731536,62.3718132 185.731536,56.0270008 C185.731536,50.8175759 189.004123,44.7065197 194.881423,44.7065197 C201.526779,44.7065197 204.932942,49.9159446 204.932942,56.1605758 C204.932942,61.7707257 201.960898,67.9819631 195.616086,67.9819631 Z M195.348936,63.2400507 C199.289398,63.2400507 200.324604,59.332982 200.324604,56.0937883 C200.324604,53.0549571 199.389579,49.1812822 195.549298,49.1812822 C191.174717,49.1812822 190.440054,53.9899821 190.440054,57.3961445 C190.440054,60.3347945 192.143136,63.2400507 195.348936,63.2400507 Z M218.490804,67.9819631 C211.344542,67.9819631 208.606254,62.3718132 208.606254,56.0270008 C208.606254,50.8175759 211.878842,44.7065197 217.756141,44.7065197 C224.401498,44.7065197 227.80766,49.9159446 227.80766,56.1605758 C227.80766,61.7707257 224.835616,67.9819631 218.490804,67.9819631 Z M218.223654,63.2400507 C222.164116,63.2400507 223.199323,59.332982 223.199323,56.0937883 C223.199323,53.0549571 222.264298,49.1812822 218.424016,49.1812822 C214.049435,49.1812822 213.314773,53.9899821 213.314773,57.3961445 C213.314773,60.3347945 215.017854,63.2400507 218.223654,63.2400507 Z" id="toucanoo" fill="#FEFEFE" transform="translate(141.351243, 56.294151) rotate(-5.000000) translate(-141.351243, -56.294151) "></path>
            <path d="M268.023364,39.5455951 C265.496995,39.2495913 262.989221,38.7790369 260.480234,38.3642247 C258.437937,30.6797222 255.569888,22.9141494 252.339847,23.0487243 C249.181658,23.1803493 245.893508,30.424508 243.380985,37.6923673 C240.819144,38.3749052 238.213545,38.8933696 235.624621,39.4589301 C233.832141,39.8505502 234.590688,42.618033 236.382663,42.2265146 C238.358362,41.7949187 240.343764,41.391194 242.312086,40.9207412 C240.352252,47.0906401 239.076385,52.4850294 239.076385,52.4850294 L244.961241,52.6593766 L244.451905,56.9561106 C244.348117,56.9453284 244.243016,56.9380046 244.136601,56.9364788 C242.328356,56.9095231 240.842287,58.2651391 240.817325,59.9642618 C241.690473,59.9772819 242.830315,59.9943708 244.089407,60.0131889 L244.087992,60.0250901 L247.44567,60.073 L248.361667,52.7599772 L253.942336,52.9252714 L254.837616,60.073 L258.195295,60.0250901 L258.19388,60.0131889 C259.453072,59.9943708 260.593016,59.9772819 261.466063,59.9642618 C261.441,58.2651391 259.95493,56.9095231 258.146786,56.9364788 C258.04027,56.9380046 257.93527,56.9453284 257.831483,56.9561106 L257.365602,53.0266858 L263.667729,53.2133411 C263.667729,53.2133411 262.76871,47.6995331 261.245148,41.38682 C263.49886,41.7668442 265.753886,42.1499198 268.023364,42.4158147 C268.789389,42.505633 269.449,41.6919786 269.449,40.980654 C269.449,40.1303806 268.791714,39.6357186 268.023364,39.5455951 Z" id="Stroke-1" fill="#FFE546"></path>
            <polygon id="Fill-1" fill="#FFE546" transform="translate(253.658500, 10.523500) rotate(14.000000) translate(-253.658500, -10.523500) " points="257.47 1.267 249.847 1.70319982 255.816187 19.78"></polygon>
            <polygon id="Fill-4" fill="#FEC10E" transform="translate(243.313000, 14.879500) rotate(24.000000) translate(-243.313000, -14.879500) " points="235.69 17.6623821 250.936 18.691 237.729874 11.068"></polygon>
        </g>
    </g>
</svg>