<?xml version="1.0" encoding="UTF-8"?>
<svg width="170px" height="33px" viewBox="0 0 170 33" version="1.1" xmlns="http://www.w3.org/2000/svg" xmlns:xlink="http://www.w3.org/1999/xlink">
    <!-- Generator: Sketch 50 (54983) - http://www.bohemiancoding.com/sketch -->
    <title>logo</title>
    <desc>Created with Sketch.</desc>
    <defs></defs>
    <g id="logo" stroke="none" stroke-width="1" fill="none" fill-rule="evenodd">
        <g id="Group">
            <path d="M21.3593,25.2427 C18.9378,27.4097 16.8388,28.3567 14.4733,28.2742 C9.6998,28.1097 8.6893,20.7647 8.5998,18.4857 L19.3678,12.3677 L17.6548,9.2677 L9.1708,13.8362 L8.9458,0.0947 L5.1498,0.0002 C5.1738,6.9832 5.3453,11.5682 5.4183,15.3042 L-0.0002,18.1857 L1.8373,21.6717 L5.2008,19.9507 C7.8658,40.5107 23.2748,28.6542 23.2748,28.6542 L21.3593,25.2427 Z" id="Fill-1" fill="#1EBCBD"></path>
            <path d="M37.36715,26.2256 C35.47315,30.0731 30.43215,29.4131 29.10365,27.1636 C27.47915,24.4121 27.70265,18.9421 30.37315,17.0361 C31.64915,16.1256 34.58965,15.6046 36.62515,17.0721 C38.33915,18.3076 38.97065,22.9686 37.36715,26.2256 M38.52215,14.3961 C35.37015,12.2031 30.57815,12.7201 28.62615,14.1126 C24.53965,17.0291 24.08415,25.6101 26.93815,29.5781 C29.28215,32.8356 37.16865,32.8056 39.58065,28.1426 C42.13115,23.2101 41.06115,16.1626 38.52215,14.3961" id="Fill-4" fill="#1EBCBD"></path>
            <path d="M147.98285,26.2256 C146.08885,30.0731 141.04785,29.4131 139.71935,27.1636 C138.09485,24.4121 138.31835,18.9421 140.98885,17.0361 C142.26485,16.1256 145.20535,15.6046 147.24085,17.0721 C148.95485,18.3076 149.58635,22.9686 147.98285,26.2256 M149.13785,14.3961 C145.98585,12.2031 141.19385,12.7201 139.24185,14.1126 C135.15535,17.0291 134.69935,25.6101 137.55385,29.5781 C139.89735,32.8356 147.78435,32.8056 150.19585,28.1426 C152.74685,23.2101 151.67635,16.1626 149.13785,14.3961" id="Fill-6" fill="#EE3D3E"></path>
            <path d="M43.61885,13.7261 L46.82385,12.9341 C46.82385,12.9341 48.43485,25.2526 50.07135,27.0186 C51.37235,28.4226 52.96185,28.4026 53.77185,26.7991 C54.75935,24.8456 55.16985,20.4516 55.45235,12.9996 L58.71585,13.3546 C58.71585,13.3546 58.77185,28.0701 55.32435,30.4436 C51.70685,32.9336 48.36585,31.0671 47.14735,29.0591 C45.03285,25.5741 43.66885,15.3601 43.61885,13.7261" id="Fill-8" fill="#1EBCBD"></path>
            <path d="M73.23675,12.6685 L73.82875,15.5675 C73.82875,15.5675 63.86925,17.336 63.90375,23.8455 C63.91825,26.5395 64.46475,28.477 74.49375,28.5455 L74.42925,31.4535 C74.42925,31.4535 60.39225,32.598 60.95625,24.418 C61.51975,16.238 67.85575,13.621 73.23675,12.6685" id="Fill-10" fill="#1EBCBD"></path>
            <path d="M79.5046,25.9844 C79.0556,24.3989 79.9331,20.1419 81.3286,18.6764 C84.2136,15.6454 88.6791,16.1409 88.6791,16.1409 L88.7201,27.5509 C81.1246,29.0929 79.9311,27.4904 79.5046,25.9844 Z M91.6406,12.9459 C91.6406,12.9459 84.4486,11.6359 79.7761,16.3704 C77.8471,18.3259 75.8391,21.6279 76.3866,26.7859 C76.3866,26.7859 76.5841,33.8289 88.8411,30.5734 L88.9386,32.2029 L91.9836,32.2704 L91.6406,12.9459 Z" id="Fill-12" fill="#1EBCBD"></path>
            <path d="M96.9926,12.45215 L95.7301,31.90065 L99.2296,31.97815 L100.0866,20.47015 C100.0866,20.47015 103.4591,14.63915 107.4861,18.07865 C107.4861,18.07865 108.1586,18.83215 108.1581,21.44365 C108.1576,24.05565 107.7091,32.67465 107.7091,32.67465 L110.9931,32.09615 C110.9931,32.09615 112.6891,21.60065 111.3146,17.56665 C111.3146,17.56665 110.5226,14.45515 107.5306,13.48015 C107.5306,13.48015 103.8591,12.06515 100.5101,14.29015 L100.6021,12.73115 L96.9926,12.45215 Z" id="Fill-14" fill="#1EBCBD"></path>
            <path d="M127.7392,13.5801 C125.7777,15.1241 119.8492,14.8096 119.3382,14.9541 L119.5812,3.9676 C119.5812,3.9676 125.4167,3.7536 128.0637,5.9016 C130.6892,8.0311 129.9422,11.8466 127.7392,13.5801 M128.3192,26.1971 C126.7402,29.8391 119.3567,28.8021 119.3567,28.8021 L119.5862,18.4211 C122.5462,18.1646 125.2772,18.5471 125.2772,18.5471 C129.4087,19.5111 129.8977,22.5551 128.3192,26.1971 M130.0202,16.0981 C130.0202,16.0981 135.0022,10.9986 132.3982,5.8521 C131.8622,4.7926 131.2567,3.6791 129.7357,2.6146 C128.9042,2.0326 128.2852,1.6806 125.6737,1.1511 C123.3082,0.6716 118.3787,0.2546 116.5337,0.8516 L115.8567,31.4411 C115.8567,31.4411 125.1687,33.5511 129.2387,30.2686 C133.3087,26.9861 134.8697,18.9951 130.0202,16.0981" id="Fill-16" fill="#EE3D3E"></path>
            <polygon id="Fill-18" fill="#EE3D3E" points="169.8227 13.8794 166.2177 12.6129 160.8187 19.9539 155.7477 12.6204 152.7117 13.4789 159.1057 22.6459 153.3952 30.7024 156.4137 31.9454 161.0632 25.0934 166.4477 32.4349 169.1392 30.4769 163.2662 22.8904"></polygon>
        </g>
    </g>
</svg>