<?xml version="1.0" encoding="UTF-8"?>
<svg width="267px" height="118px" viewBox="0 0 267 118" version="1.1" xmlns="http://www.w3.org/2000/svg" xmlns:xlink="http://www.w3.org/1999/xlink">
    <!-- Generator: Sketch 50 (54983) - http://www.bohemiancoding.com/sketch -->
    <title>logo-cutout</title>
    <desc>Created with Sketch.</desc>
    <defs></defs>
    <g id="logo-cutout" stroke="none" stroke-width="1" fill="none" fill-rule="evenodd">
        <g id="logo">
            <path d="M8.9935,7.5054 C7.2455,11.4854 7.4115,18.9474 9.2355,28.7614 C6.1285,29.3484 2.0355,31.0234 1.2625,33.5934 C0.6815,35.5244 0.4825,39.3744 2.2275,43.7384 C2.9175,45.4604 4.1545,46.0374 5.4945,46.0374 C6.9735,46.0374 8.5795,45.3374 9.7175,44.7044 C10.9245,48.3254 12.6155,52.6744 15.9985,57.0224 C14.7915,71.9994 14.7915,102.9204 17.2055,115.7234 C20.4925,116.3294 25.0725,117.3314 30.4415,117.3314 C37.3275,117.3314 45.5095,115.6834 53.9245,109.4414 C58.9745,113.5764 65.2295,115.5274 71.1795,115.5274 C77.7435,115.5274 83.9385,113.1524 87.7395,108.7184 C89.7225,110.0914 93.6705,112.1014 96.7115,112.1014 C97.8395,112.1014 98.8445,111.8224 99.5765,111.1324 C101.5335,109.2884 103.2015,107.2694 104.6515,105.0934 C109.2345,110.7574 114.5915,113.0424 119.4205,113.0424 C127.5655,113.0424 134.2155,106.5454 133.1545,98.8154 C138.9515,96.1544 142.4805,92.2374 144.0225,89.1504 C146.4405,94.7054 151.9955,100.0224 158.2775,101.9514 C158.1355,108.9804 162.9005,112.3294 167.7695,112.3294 C171.2685,112.3294 174.8175,110.6024 176.6355,107.2694 C179.2385,108.3464 181.4605,108.8144 183.3505,108.8144 C190.7605,108.8144 193.0615,101.6474 193.0615,96.1544 C195.1155,97.4854 197.7715,98.3904 200.3395,98.3904 C202.9025,98.3904 205.3805,97.4854 207.0715,95.1904 C209.8245,96.1784 212.1725,96.6064 214.1785,96.6064 C221.5055,96.6064 224.2385,90.8884 225.1865,85.7704 C238.2305,81.9034 235.5745,68.1364 232.6765,66.6874 C236.7815,64.7534 241.6135,59.4404 244.5125,50.9864 C245.6675,50.1764 247.3685,49.7754 249.3455,49.7754 C253.5835,49.7754 259.0795,51.6254 263.1125,55.3334 C264.9235,51.7084 266.1345,47.7224 266.8565,38.3034 C267.8455,25.4414 257.8125,21.3714 244.6555,21.3714 C225.2065,21.3714 198.9325,30.2744 191.3705,32.8664 C192.3625,25.5804 190.2895,21.5874 186.3195,21.5874 C184.4985,21.5874 182.2795,22.4264 179.7755,24.1714 C177.5935,21.6604 175.1625,20.3834 173.1095,20.3834 C170.6225,20.3834 168.6845,22.2644 168.4235,26.1054 C167.6705,25.7304 166.8015,25.5304 165.9655,25.5304 C164.6485,25.5304 163.4115,26.0224 162.8645,27.0704 C160.9145,19.2664 153.7145,15.4024 146.2675,15.4024 C142.6495,15.4024 138.9715,16.3174 135.8105,18.1314 C132.5705,15.8174 129.3995,14.7454 126.3355,14.7454 C121.4035,14.7454 116.7475,17.5184 112.5015,22.3604 C109.9585,18.7684 106.4455,17.3824 102.8065,17.3824 C97.6375,17.3824 92.2105,20.1844 88.9505,23.4474 C85.7295,22.1214 82.4035,21.5734 79.1495,21.5734 C74.1015,21.5734 69.2435,22.8914 65.2765,24.6544 C61.8995,20.8184 57.7875,19.2364 53.7815,19.2364 C48.3325,19.2364 43.0785,22.1674 40.1535,26.3474 C38.3255,20.6984 35.3605,16.9934 30.8595,16.9934 C28.8105,16.9934 26.4455,17.7634 23.7295,19.4614 C23.7295,15.2454 23.7955,9.9884 22.5185,7.0214 C22.0045,5.8174 19.2585,5.2164 16.3665,5.2164 C13.1095,5.2164 9.6605,5.9794 8.9935,7.5054 Z" id="Fill-1" fill-opacity="0.197633605" fill="#231F20"></path>
            <path d="M9.2347,23.688 C7.4137,13.875 7.2447,6.413 8.9927,2.432 C10.2557,-0.447 21.4197,-0.609 22.5207,1.948 C23.7947,4.917 23.7277,10.173 23.7277,14.388 C32.4237,8.953 37.4957,13.059 40.1557,21.274 C45.2257,14.027 57.3047,10.525 65.2747,19.583 C71.7987,16.684 80.7377,14.993 88.9497,18.376 C94.5047,12.82 106.3407,8.591 112.5007,17.288 C119.3857,9.437 127.3557,7.022 135.8097,13.059 C145.4737,7.503 159.9677,10.402 162.8667,21.997 C163.7577,20.283 166.4887,20.067 168.4217,21.032 C168.9057,14.027 174.9427,13.542 179.7747,19.098 C187.7477,13.542 192.8187,17.167 191.3697,27.794 C204.0517,23.447 269.3057,1.365 266.8557,33.23 C266.1317,42.65 264.9247,46.636 263.1107,50.261 C257.1937,44.825 248.1357,43.375 244.5107,45.913 C241.6127,54.367 236.7837,59.68 232.6777,61.614 C235.5767,63.063 238.2327,76.831 225.1887,80.698 C223.9817,87.218 219.8727,94.707 207.0707,90.117 C203.6907,94.707 197.1677,93.742 193.0607,91.082 C193.0607,97.974 189.4357,107.509 176.6337,102.196 C172.2857,110.166 158.0347,108.959 158.2767,96.879 C151.9947,94.949 146.4387,89.632 144.0247,84.078 C142.4827,87.165 138.9507,91.082 133.1527,93.742 C134.8437,106.06 116.9707,115.24 104.6497,100.02 C103.2007,102.196 101.5327,104.215 99.5787,106.06 C96.8727,108.61 90.4587,105.529 87.7417,103.645 C80.4957,112.099 64.5517,113.064 53.9227,104.369 C38.9447,115.482 24.7067,112.037 17.2047,110.65 C14.7897,97.848 14.7897,66.927 15.9977,51.95 C12.6177,47.601 10.9257,43.253 9.7187,39.631 C7.5437,40.838 3.6787,42.288 2.2297,38.667 C0.4857,34.301 0.6837,30.451 1.2647,28.521 C2.0347,25.951 6.1267,24.276 9.2347,23.688" id="Fill-3" fill="#FEFEFE"></path>
            <path d="M36.8685,39.107 C33.6005,42.307 29.9495,42.818 29.9495,42.818 C21.5975,44.221 20.0365,32.501 19.7645,29.303 L33.2395,21.628 L30.4315,16.628 L19.4355,22.989 L18.5205,4.508 L12.4875,4.647 C12.6175,13.317 13.0345,21.253 13.3735,26.501 L6.3985,30.534 L9.2005,35.32 L13.8205,32.689 C13.8345,32.862 13.8445,32.952 13.8445,32.952 C19.8235,61.044 39.7765,43.78 39.7765,43.78 L36.8685,39.107 Z" id="Fill-5" fill="#EE3D3E"></path>
            <path d="M60.7064,21.3804 C56.1364,18.4944 49.4334,19.5264 46.7754,21.6064 C41.2174,25.9634 41.1184,38.0524 45.3804,43.4514 C48.8794,47.8834 59.9664,47.3424 63.0604,40.6364 C66.3344,33.5424 64.3874,23.7014 60.7064,21.3804 M59.8304,38.0824 C57.4094,43.6104 50.2814,43.0014 48.2714,39.9234 C45.8144,36.1554 45.7844,28.4544 49.4164,25.6054 C51.1534,24.2454 55.2534,23.3264 58.2084,25.2604 C60.6954,26.8894 61.8764,33.4024 59.8304,38.0824" id="Fill-7" fill="#EE3D3E"></path>
            <path d="M68.1195,22.8277 L72.0895,21.6567 C72.0895,21.6567 74.7995,36.9927 76.9485,39.1127 C78.6565,40.7977 80.6425,40.6817 81.5685,38.6287 C82.6955,36.1277 82.9615,30.6017 82.8985,21.2527 L87.0045,21.5147 C87.0045,21.5147 87.9025,39.9377 83.7175,43.1057 C79.3295,46.4257 75.0385,44.2757 73.3995,41.8317 C70.5575,37.5867 68.2715,24.8707 68.1195,22.8277" id="Fill-9" fill="#EE3D3E"></path>
            <path d="M106.3724,15.9771 L107.3874,20.0131 C107.3874,20.0131 93.4974,23.1311 93.9584,32.2791 C94.1464,36.0631 95.0394,38.7521 109.1424,38.2151 L109.2344,42.3081 C109.2344,42.3081 89.5734,44.8021 89.8514,33.2701 C90.1274,21.7351 98.8704,17.6561 106.3724,15.9771" id="Fill-11" fill="#EE3D3E"></path>
            <path d="M131.8089,16.1167 C131.8089,16.1167 122.0719,14.7897 116.0849,21.4297 C113.6149,24.1727 111.1169,28.7257 112.1619,35.6187 C112.1619,35.6187 112.8509,45.0637 129.1129,39.9527 L129.3409,42.1357 L133.4339,42.0427 L131.8089,16.1167 Z M116.2999,34.3547 C115.6009,32.2517 116.5229,26.4837 118.3069,24.4307 C121.9979,20.1887 128.0249,20.5847 128.0249,20.5847 L128.7679,35.9037 C118.6629,38.4307 116.9639,36.3507 116.2999,34.3547 Z" id="Fill-13" fill="#EE3D3E"></path>
            <path d="M139.4964,16.48 L139.0154,41.126 L143.3954,41.027 L143.8174,26.437 C143.8174,26.437 147.9934,18.537 152.9324,22.998 C153.7374,23.724 153.8134,23.913 153.9634,27.213 C154.1084,30.513 154.0324,41.428 154.0324,41.428 L158.1084,40.512 C158.1084,40.512 159.6344,27.157 157.6874,22.135 C157.6874,22.135 156.5234,18.249 152.7284,17.183 C152.7284,17.183 148.0594,15.605 143.9964,18.606 L144.0224,16.629 L139.4964,16.48 Z" id="Fill-15" fill="#EE3D3E"></path>
            <path d="M44.8773,79.7076 C44.8773,79.7076 52.7843,70.8526 48.0673,62.4836 C47.0963,60.7636 46.0053,58.9556 43.3983,57.2976 C41.9693,56.3916 40.9143,55.8516 36.5293,55.1676 C32.5603,54.5446 24.3273,54.2196 21.3033,55.3506 L22.4603,106.2896 C22.4603,106.2896 37.2953,109.1426 43.8223,103.3786 C50.3463,97.6096 53.1623,84.1646 44.8773,79.7076 M42.8083,95.4246 C40.5093,101.0226 28.4893,99.9816 28.4893,99.9816 L28.1323,84.3166 C32.9043,83.7246 37.3493,84.1086 37.3493,84.1086 C44.1013,85.2726 45.1093,89.8266 42.8083,95.4246 M41.0603,74.9406 C38.0913,77.4786 28.7723,77.4056 27.9823,77.6646 L27.5943,60.5706 C27.5943,60.5706 36.7293,59.8276 41.0303,62.9816 C45.2953,66.1056 44.3933,72.0926 41.0603,74.9406" id="Fill-17" fill="#1EBCBD"></path>
            <path d="M84.3773,63.4615 C79.9303,49.2205 50.9893,46.7025 53.1053,75.6375 C53.1053,75.6375 53.7583,92.1235 56.8433,96.7005 C59.9313,101.2745 63.6653,103.9645 72.0693,104.5345 C80.4713,105.1085 83.9863,98.0245 85.6843,93.4815 C87.4363,88.7975 88.3413,76.1505 84.3773,63.4615 M77.9103,96.1495 C70.5143,102.8865 63.1613,96.8375 61.4763,93.0595 C54.8263,78.1645 59.8673,65.0835 59.8673,65.0835 C65.6753,55.1735 76.7523,59.4625 78.9613,65.2425 C85.1343,81.4245 80.1193,94.1405 77.9103,96.1495" id="Fill-19" fill="#1EBCBD"></path>
            <polygon id="Fill-21" fill="#1EBCBD" points="118.1507 54.5337 113.8527 51.5127 103.8067 72.1087 93.4217 52.5907 87.5857 55.0917 100.4107 79.0697 90.6667 99.0537 96.4037 101.3477 103.8027 85.4187 112.3537 101.4007 118.0647 98.9137 107.1067 78.3107"></polygon>
            <path d="M194.0482,67.8609 C194.0482,67.8609 208.5742,73.8079 216.4912,65.9409 C216.4912,65.9409 221.4772,60.5019 223.8612,60.5349 C223.8612,60.5349 227.1382,60.1239 225.2712,64.2589 C225.2712,64.2589 224.3592,65.8819 224.0072,66.4219 C224.0072,66.4219 230.3612,67.5159 226.5742,73.5189 C226.5742,73.5189 222.2332,78.1359 217.5692,78.9879 C217.5692,78.9879 217.7052,88.1619 209.6332,86.0489 C208.3132,85.7049 205.9782,84.6789 204.7902,83.5419 C204.7902,83.5419 203.0392,87.0639 198.1442,86.2609 C195.7102,85.8599 191.2822,84.2679 190.0152,80.6639 C188.7512,77.0579 191.0462,71.0619 191.0462,71.0619 L194.0482,67.8609 Z" id="Fill-24" fill="#424F4F"></path>
            <path d="M166.1722,90.4273 C166.1722,90.4273 166.4412,95.6543 165.6092,97.8233 C164.7732,99.9953 166.5372,101.0533 167.0682,100.1983 C167.5952,99.3453 167.8342,98.8313 167.8342,98.8313 C167.8342,98.8313 167.8542,101.3593 168.9442,101.2593 C170.0392,101.1593 170.4542,100.1313 170.5302,98.7553 C170.5302,98.7553 170.9052,99.7663 171.5982,99.4083 C172.2912,99.0533 172.4932,96.9243 172.1622,96.0583 C171.8302,95.1933 170.3882,92.3303 169.7082,91.5683 C169.0312,90.8053 166.1722,90.4273 166.1722,90.4273" id="Fill-26" fill="#FFE546"></path>
            <path d="M174.9154,90.2212 C174.9154,90.2212 177.2074,92.6222 177.5164,96.5882 C177.5164,96.5882 177.7474,98.4192 178.7424,98.1982 C178.7424,98.1982 179.4924,98.3362 179.6144,97.2622 C179.6144,97.2622 180.2124,99.3382 181.2694,99.0302 C182.3284,98.7212 182.3674,97.5372 182.3314,97.1102 C182.3314,97.1102 182.4744,97.6262 182.9714,97.5472 C183.4654,97.4672 183.8164,96.9342 183.5594,95.4682 C183.3004,93.9982 181.8114,90.7052 179.3334,89.7462 C176.8524,88.7842 174.9154,90.1342 174.9154,90.1342" id="Fill-28" fill="#FFE546"></path>
            <path d="M186.2962,20.4703 C186.2962,20.4703 178.8602,24.2383 180.3762,33.7423 C180.3762,33.7423 187.7352,31.2723 186.2962,20.4703" id="Fill-30" fill="#EE3D3E"></path>
            <path d="M166.1029,28.0533 C166.1029,28.0533 167.5989,36.3513 181.1509,34.4243 C181.1509,34.4243 172.9849,27.1603 166.1029,28.0533" id="Fill-32" fill="#FFE546"></path>
            <path d="M173.2494,18.7066 C173.2494,18.7066 169.0544,27.9736 180.3774,33.7406 C180.3774,33.7406 181.2354,23.6476 173.2494,18.7066" id="Fill-34" fill="#1EBCBD"></path>
            <path d="M193.1078,34.9302 L196.5468,48.3752 C198.9918,50.4612 202.7098,51.4442 206.8088,51.8182 L202.0038,31.9582 C196.9418,33.6232 193.1078,34.9302 193.1078,34.9302" id="Fill-36" fill="#FFE546"></path>
            <path d="M260.8119,41.8785 C262.8219,35.8625 261.9899,31.5215 261.9899,31.5215 C258.6329,19.3585 247.2699,20.8515 241.2269,21.4185 L245.0049,38.6545 C257.2499,35.3215 260.8119,41.8785 260.8119,41.8785" id="Fill-38" fill="#EE3D3E"></path>
            <path d="M197.0189,50.1294 C197.0189,50.1294 191.9079,50.8654 194.9289,53.5564 C196.3629,54.8294 198.9659,57.1914 206.0339,58.9154 C206.9319,59.1344 207.8039,59.3104 208.6569,59.4564 L207.6719,55.3864 C200.9329,53.8274 197.0189,50.1294 197.0189,50.1294" id="Fill-40" fill="#FFE546"></path>
            <path d="M207.6712,55.3863 L208.6552,59.4563 C211.3422,59.9103 213.8172,60.0133 216.0852,59.8443 L215.1692,56.0233 C212.3942,56.1763 209.8792,55.8973 207.6712,55.3863" id="Fill-42" fill="#EE3D3E"></path>
            <path d="M202.0023,31.9595 L206.8083,51.8195 C208.7413,51.9955 210.7623,52.0355 212.7883,51.9795 C213.2753,51.9655 213.7363,51.9415 214.1843,51.9125 L208.8453,29.7675 C206.3603,30.5535 204.0623,31.2825 202.0023,31.9595" id="Fill-44" fill="#EE3D3E"></path>
            <path d="M208.8441,29.7662 L214.1841,51.9142 C218.4461,51.6322 221.0191,50.6742 223.1251,49.5372 L217.3811,27.1102 C214.4651,27.9852 211.5501,28.9072 208.8441,29.7662" id="Fill-46" fill="#FFE546"></path>
            <path d="M242.4789,39.4449 C243.3579,39.1369 244.1999,38.8749 245.0019,38.6559 L241.2249,21.4199 C241.0329,21.4359 240.8269,21.4529 240.6439,21.4689 C237.5069,21.7379 232.5479,22.8889 227.0159,24.3719 L232.0039,44.4939 C237.3479,41.7299 242.4789,39.4449 242.4789,39.4449" id="Fill-48" fill="#FFE546"></path>
            <path d="M215.1693,56.023 L216.0843,59.847 C219.6003,59.588 222.6243,58.683 225.1983,57.462 L224.3133,54.03 C221.0233,55.274 217.9613,55.867 215.1693,56.023" id="Fill-50" fill="#FFE546"></path>
            <path d="M236.9691,46.4761 C235.6891,47.5211 234.4281,48.4631 233.1951,49.3091 L233.6361,51.1101 C235.9101,48.5731 236.9691,46.4761 236.9691,46.4761" id="Fill-52" fill="#FFE546"></path>
            <path d="M232.0062,44.4937 L227.0182,24.3717 C223.9062,25.2077 220.6432,26.1327 217.3792,27.1077 L223.1242,49.5347 C223.8002,49.1667 229.5742,45.7537 232.0062,44.4937" id="Fill-54" fill="#1EBCBD"></path>
            <path d="M225.1722,57.4888 C228.9132,55.7148 231.7202,53.2468 233.6372,51.1108 L233.1922,49.3098 C230.0842,51.4398 227.0892,52.9948 224.2872,54.0528 L225.1722,57.4888 Z" id="Fill-56" fill="#1EBCBD"></path>
            <path d="M125.9222,52.6587 C125.9222,52.6587 125.5042,67.6457 144.0802,69.2447 C144.0802,69.2447 140.3992,56.2637 125.9222,52.6587" id="Fill-58" fill="#1EBCBD"></path>
            <path d="M123.7523,88.023 C123.5533,88.073 126.2863,72.913 144.0963,69.244 C144.0963,69.244 145.2603,82.712 123.7523,88.023" id="Fill-60" fill="#FFE546"></path>
            <path d="M118.2992,72.9732 C118.2992,72.9732 128.1232,60.7812 144.1122,69.2652 C144.1122,69.2652 133.7872,77.9342 118.2992,72.9732" id="Fill-62" fill="#EE3D3E"></path>
            <path d="M190.971,61.7408 C191.577,55.3628 189.213,53.6088 187.412,51.6648 C177.532,40.9988 189.876,35.8118 193.409,34.8298 C190.417,30.8168 180.859,30.7198 177.277,36.8798 C174.623,41.4398 173.363,56.0588 173.363,56.0588 L144.117,69.2428 C149.149,97.0658 171.738,93.0598 171.738,93.0598 C182.888,90.7018 189.472,84.3038 193.153,76.5628 C186.109,73.7108 190.619,65.4198 190.971,61.7408" id="Fill-64" fill="#2B2B2B"></path>
            <path d="M193.4945,34.9869 L193.3855,34.8379 C189.8525,35.8199 177.5125,41.0039 187.3885,51.6739 C189.1895,53.6169 191.5575,55.3679 190.9505,61.7489 C190.5985,65.4269 186.0855,73.7179 193.1335,76.5709 C200.8045,60.4419 195.8955,38.4799 193.4945,34.9869" id="Fill-66" fill="#FEFEFE"></path>
            <path d="M167.389,68.5005 C167.389,68.5005 176.811,62.9945 178.811,64.6165 C180.811,66.2385 180.131,68.5505 179.942,69.7545 C179.753,70.9585 176.808,78.3205 172.278,81.9165 C167.75,85.5115 165.91,84.7555 164.473,82.7955 C164.473,82.7955 163.572,81.2135 163.458,79.8535 C163.458,79.8535 158.831,84.4165 156.344,80.6365 C156.344,80.6365 155.08,78.7885 155.515,76.8545 C155.515,76.8545 149.569,77.2665 149.257,71.9025 C149.257,71.9025 149.296,69.6045 150.361,69.3935 C150.361,69.3935 150.802,69.2535 151.419,69.8235 C152.033,70.3915 153.588,71.6845 156.712,71.4485 C159.836,71.2135 166.271,69.1275 167.389,68.5005" id="Fill-68" fill="#424F4F"></path>
            <path d="M186.3333,43.4703 C186.4823,42.4723 186.7183,41.3943 188.5753,41.0753 C190.4293,40.7573 191.6093,42.5813 191.5863,44.3033 C191.5603,46.0243 191.2013,49.2943 190.0373,49.6623 C188.8773,50.0333 187.2023,49.7083 186.6783,47.2043 C186.1533,44.7003 186.2143,44.2663 186.3333,43.4703" id="Fill-70" fill="#2B2B2B"></path>
            <path d="M189.3675,42.773 C189.3615,43.147 189.0535,43.449 188.6785,43.446 C188.3005,43.439 187.9985,43.13 188.0045,42.752 C188.0115,42.377 188.3195,42.076 188.6945,42.083 C189.0725,42.086 189.3745,42.398 189.3675,42.773" id="Fill-72" fill="#FEFEFE"></path>
            <path d="M196.1117,68.5689 L195.9027,68.5069 C196.4137,66.3669 197.2327,58.6659 197.2627,55.3919 L197.5077,55.5509 C197.4617,59.0339 196.6857,66.2509 196.1117,68.5689" id="Fill-74" fill="#D0CCBF"></path>
            <path d="M123.3753,94.6324 C123.4953,94.6254 123.6143,94.6224 123.7333,94.6184 C124.8573,94.6494 125.7003,95.0604 126.3303,95.6404 C126.9613,96.2214 127.4413,97.0244 127.5673,98.1414 C127.5743,98.2604 127.5773,98.3804 127.5843,98.4994 C127.5513,99.6234 127.1403,100.4664 126.5603,101.1004 C125.9823,101.7304 125.1733,102.2074 124.0593,102.3334 C123.9393,102.3404 123.8193,102.3434 123.7003,102.3504 C122.5763,102.3174 121.7333,101.9084 121.1043,101.3284 C120.4743,100.7484 119.9923,99.9394 119.8663,98.8244 C119.8593,98.7054 119.8533,98.5854 119.8533,98.4664 L119.8593,98.4494 C119.8763,97.3214 120.3043,96.4964 120.8813,95.8694 C121.4583,95.2394 122.2583,94.7554 123.3753,94.6324 M122.6293,95.2024 C121.9623,95.4254 121.4513,95.8104 121.0773,96.2644 C120.5933,96.8514 120.1553,97.7204 120.2873,98.8244 C120.4133,99.8894 120.8643,100.5724 121.4883,101.1124 C122.0783,101.6274 122.9943,102.0224 124.0493,101.9054 C125.0903,101.7894 125.8293,101.3354 126.3473,100.7114 C126.8513,100.1084 127.2493,99.2724 127.1493,98.1414 C127.0603,97.1294 126.5293,96.3474 125.9453,95.8534 C125.3493,95.3454 124.4793,94.9414 123.3753,95.0534 C123.1333,95.0764 122.8543,95.1264 122.6293,95.2024" id="Fill-76" fill="#1EBCBD"></path>
            <path d="M123.933,99.1089 C124.254,99.6029 124.662,100.0009 125,100.4779 C124.898,100.6009 124.772,100.7039 124.646,100.8099 C124.258,100.2959 123.867,99.7919 123.501,99.2549 C123.309,99.2849 123.117,99.3139 122.914,99.3309 C122.954,99.8979 123.028,100.4209 123.078,100.9789 C122.945,101.0049 122.762,100.9859 122.632,101.0119 C122.579,100.8169 122.589,100.6079 122.579,100.3989 C122.52,98.9659 122.341,97.5439 122.182,96.1999 C122.62,96.1139 123.044,96.0049 123.572,96.0139 C123.953,96.0169 124.344,96.1499 124.57,96.3229 C124.878,96.5579 125.114,96.9199 125.097,97.4729 C125.074,98.2799 124.579,98.8229 123.933,99.1089 M124.202,98.4189 C124.384,98.2499 124.582,97.9279 124.643,97.6459 C124.729,97.2279 124.566,96.9099 124.337,96.7169 C124.247,96.6409 124.171,96.5539 124.055,96.5149 C123.671,96.3789 123.061,96.5349 122.66,96.5749 C122.719,97.3539 122.825,98.0839 122.874,98.8699 C123.412,98.7999 123.879,98.7239 124.202,98.4189" id="Fill-78" fill="#1EBCBD"></path>
        </g>
    </g>
</svg>