<?xml version="1.0" encoding="UTF-8"?>
<svg width="280px" height="80px" viewBox="0 0 280 80" version="1.1" xmlns="http://www.w3.org/2000/svg" xmlns:xlink="http://www.w3.org/1999/xlink">
    <!-- Generator: Sketch 50.2 (55047) - http://www.bohemiancoding.com/sketch -->
    <title>logoDE</title>
    <desc>Created with Sketch.</desc>
    <defs></defs>
    <g id="logoDE" stroke="none" stroke-width="1" fill="none" fill-rule="evenodd">
        <g id="Group-3" transform="translate(9.000000, 3.000000)">
            <path d="M10.218,30 L8.476,30.026 L4.862,30.026 C3.874,27.166 0.91,15.232 0.78,12.528 C1.066,12.45 1.378,12.45 1.664,12.45 L4.004,12.45 C6.11,16.402 6.734,21.394 7.67,25.736 L7.956,25.762 C8.372,23.5 10.816,13.906 11.882,12.45 L15.236,12.45 C15.236,15.128 11.206,26.568 10.218,30 Z M29.64,30.026 L25.636,30.026 C23.374,30.026 20.696,30.312 18.538,29.896 C18.018,25.45 18.46,19.288 18.46,14.634 L18.512,12.528 C19.188,12.45 19.89,12.45 20.592,12.45 L28.496,12.45 L29.744,12.502 C29.796,13.022 29.822,13.568 29.822,14.088 C29.822,14.582 29.822,15.076 29.77,15.57 C29.328,15.596 28.808,15.674 28.366,15.674 C26.286,15.674 24.206,15.492 22.152,15.804 C22.1,16.142 22.1,16.48 22.1,16.818 L22.126,19.418 C23.946,19.6 25.61,19.418 27.82,19.418 C27.872,19.418 27.95,19.678 28.002,19.964 L27.846,22.148 C27.846,22.486 27.014,22.512 26.442,22.512 C25.064,22.512 23.53,22.486 22.152,22.538 L22.1,23.968 L22.1,26.308 C23.426,27.088 27.612,26.438 29.666,26.62 C29.77,27.192 29.796,27.79 29.796,28.362 C29.796,28.934 29.718,29.48 29.64,30.026 Z M47.866,26.568 L47.97,26.776 C48.074,27.712 48.308,28.622 48.308,29.558 C48.308,30.364 46.54,30.312 45.942,30.312 C43.134,30.312 41.626,27.998 40.586,25.216 L40.014,23.526 C39.598,23.292 39.13,23.318 38.662,23.318 C38.246,23.318 37.804,23.318 37.388,23.37 C37.336,23.89 37.336,24.436 37.336,24.956 C37.362,26.568 37.492,28.258 37.336,29.87 C36.478,30.026 35.672,30.052 34.814,30.052 L33.748,30.026 C33.228,29.168 33.436,16.428 33.436,14.296 C33.436,13.698 33.436,13.1 33.54,12.528 C34.632,12.32 35.88,12.424 36.972,12.424 C41.08,12.424 46.592,12.476 46.592,17.988 C46.592,20.224 45.552,21.498 43.446,22.798 C43.966,24.618 45.474,26.802 46.644,26.724 C46.956,26.698 47.32,26.776 47.866,26.568 Z M37.336,18.716 L37.336,20.25 C37.466,20.432 37.7,20.484 37.908,20.484 C39.78,20.484 42.796,20.614 42.796,18.014 C42.796,15.518 39.884,15.648 38.09,15.648 C37.232,15.648 37.362,16.038 37.362,16.766 C37.362,17.416 37.336,18.092 37.336,18.716 Z M66.95,29.896 L64.584,29.948 C63.778,29.948 62.972,30 62.166,29.87 C61.282,27.296 60.294,24.436 59.826,21.758 L59.67,21.758 C58.734,24.436 57.72,27.114 56.94,29.87 C56.212,29.922 55.51,30 54.782,30 C54.028,30 53.326,30.052 52.598,29.818 C51.87,25.944 50.258,16.662 50.258,13.048 L50.284,12.476 C50.726,12.424 51.168,12.45 51.61,12.45 C52.39,12.45 53.144,12.424 53.898,12.476 C54.418,16.246 55.094,20.068 55.328,23.864 L55.536,23.916 C55.978,21.654 56.888,19.704 57.72,17.546 C58.37,17.104 58.994,17.156 59.722,17.156 C60.476,17.156 61.126,17.182 61.854,17.338 C62.556,19.626 63.466,21.914 63.96,24.254 L64.168,24.28 C64.532,20.406 65.104,16.454 65.338,12.58 C65.806,12.45 66.196,12.45 66.664,12.45 C67.444,12.45 68.224,12.424 69.004,12.554 C68.718,18.274 67.678,24.202 66.95,29.896 Z M85.41,30.052 L82.758,30.052 C82.446,30.052 82.134,30.026 81.822,29.974 C81.458,28.544 81.146,27.062 80.782,25.632 L78.988,25.632 C78.052,25.632 77.09,25.658 76.128,25.71 C75.842,27.14 75.504,28.544 75.114,29.948 L74.204,30 L72.54,30 C72.15,30 71.734,29.948 71.344,29.896 C72.202,24.358 74.464,18.066 75.738,12.476 C76.336,12.45 76.934,12.398 77.532,12.398 C78.962,12.398 80.392,12.372 81.822,12.45 C82.524,15.154 85.462,27.634 85.462,29.402 L85.41,30.052 Z M77.818,22.304 L78.182,22.304 C78.858,22.304 79.716,22.356 80.392,22.2 C80.288,21.056 79.976,19.964 79.768,18.846 C79.43,16.922 79.534,16.272 78.78,16.272 C78.65,16.272 78.494,16.272 78.364,16.298 C78,18.3 77.168,20.224 76.986,22.278 C77.272,22.304 77.532,22.304 77.818,22.304 Z M102.908,29.948 L101.322,29.974 C100.022,29.974 98.722,29.948 97.422,29.792 C95.42,25.866 93.522,22.174 92.482,17.884 L92.326,17.884 L92.3,21.108 C92.3,24.02 92.56,27.01 92.3,29.922 C92.014,29.974 91.728,30 91.468,30 L88.998,30 L88.608,29.974 C88.556,28.518 88.504,27.088 88.504,25.632 L88.504,17.728 C88.504,15.96 88.504,14.218 88.582,12.45 L90.116,12.424 L91.936,12.424 C92.534,12.424 93.132,12.554 93.73,12.632 C95.446,16.792 97.656,21.004 98.982,25.216 L99.164,25.216 C99.19,23.994 99.242,22.772 99.242,21.55 C99.242,18.56 99.008,15.544 99.19,12.554 C99.71,12.45 100.412,12.424 100.932,12.424 C101.556,12.424 102.18,12.424 102.778,12.528 C103.194,17.026 102.934,22.018 102.934,26.568 C102.934,27.686 102.934,28.83 102.908,29.948 Z M107.744,29.922 L107.718,28.83 L107.718,20.874 C107.718,18.17 107.25,15.05 108.056,12.502 L111.618,12.45 C118.378,12.45 121.68,14.53 121.68,21.966 C121.68,29.402 116.012,30.052 110.11,30.052 C109.33,30.052 108.524,30.078 107.744,29.922 Z M111.748,26.516 C112.138,26.646 112.554,26.62 112.944,26.62 C116.246,26.62 117.858,24.722 117.858,21.498 C117.858,17.286 116.454,16.012 112.476,16.012 C112.242,16.012 111.982,16.012 111.748,16.064 C111.462,19.21 111.67,22.538 111.67,25.71 C111.67,25.97 111.696,26.256 111.748,26.516 Z M136.734,30.026 L132.73,30.026 C130.468,30.026 127.79,30.312 125.632,29.896 C125.112,25.45 125.554,19.288 125.554,14.634 L125.606,12.528 C126.282,12.45 126.984,12.45 127.686,12.45 L135.59,12.45 L136.838,12.502 C136.89,13.022 136.916,13.568 136.916,14.088 C136.916,14.582 136.916,15.076 136.864,15.57 C136.422,15.596 135.902,15.674 135.46,15.674 C133.38,15.674 131.3,15.492 129.246,15.804 C129.194,16.142 129.194,16.48 129.194,16.818 L129.22,19.418 C131.04,19.6 132.704,19.418 134.914,19.418 C134.966,19.418 135.044,19.678 135.096,19.964 L134.94,22.148 C134.94,22.486 134.108,22.512 133.536,22.512 C132.158,22.512 130.624,22.486 129.246,22.538 L129.194,23.968 L129.194,26.308 C130.52,27.088 134.706,26.438 136.76,26.62 C136.864,27.192 136.89,27.79 136.89,28.362 C136.89,28.934 136.812,29.48 136.734,30.026 Z M140.634,14.244 L140.686,12.528 C141.414,12.45 142.22,12.424 142.948,12.424 C143.312,12.424 143.676,12.45 144.04,12.502 C144.326,15.622 144.248,18.872 144.248,21.992 C144.248,23.5 144.248,24.982 144.3,26.49 C146.64,26.594 149.058,26.412 151.372,26.646 C151.502,27.348 151.554,28.388 151.554,29.09 C151.554,29.376 151.528,29.662 151.476,29.948 C150.956,30 150.436,30.026 149.916,30.026 C146.874,30.026 143.78,30.13 140.738,29.844 C140.27,24.774 140.634,19.314 140.634,14.244 Z M161.018,29.922 L160.992,28.83 L160.992,20.874 C160.992,18.17 160.524,15.05 161.33,12.502 L164.892,12.45 C171.652,12.45 174.954,14.53 174.954,21.966 C174.954,29.402 169.286,30.052 163.384,30.052 C162.604,30.052 161.798,30.078 161.018,29.922 Z M165.022,26.516 C165.412,26.646 165.828,26.62 166.218,26.62 C169.52,26.62 171.132,24.722 171.132,21.498 C171.132,17.286 169.728,16.012 165.75,16.012 C165.516,16.012 165.256,16.012 165.022,16.064 C164.736,19.21 164.944,22.538 164.944,25.71 C164.944,25.97 164.97,26.256 165.022,26.516 Z M182.494,29.974 L182.026,30 L179.374,30 C179.166,30 178.958,29.948 178.75,29.922 C178.672,29.168 178.646,28.414 178.646,27.66 L178.646,14.92 C178.646,14.114 178.698,13.334 178.75,12.528 C179.374,12.45 179.998,12.424 180.622,12.424 L182.26,12.476 C182.364,12.476 182.624,12.58 182.624,12.58 C182.624,18.248 182.728,24.332 182.494,29.974 Z M186.342,21.498 C186.342,16.584 188.76,12.112 193.752,12.112 C196.248,12.112 199.108,13.204 200.252,15.544 C199.342,16.714 197.938,17.286 197.314,17.754 C196.664,16.272 195.494,15.882 194.22,15.882 C191.23,15.882 190.424,18.17 190.424,21.368 C190.424,23.526 190.788,26.594 194.09,26.594 C195.858,26.594 196.482,25.71 197.626,24.02 C198.614,24.046 199.758,24.8 200.59,25.268 C199.836,27.998 197.522,30.286 193.752,30.286 C188.942,30.286 186.342,26.568 186.342,21.498 Z M207.74,26.204 L207.74,28.414 C207.74,30.312 207.376,30.026 205.582,30.026 C205.114,30.026 204.62,30.026 204.152,29.922 C204.074,29.246 204.048,28.57 204.048,27.894 L204.048,24.852 C204.048,20.848 203.658,16.454 204.152,12.502 C204.438,12.45 204.75,12.424 205.036,12.424 L207.35,12.45 C207.636,12.502 207.792,12.528 207.792,12.58 C207.792,14.868 207.688,17.338 207.792,19.626 C208.208,19.6 208.598,19.522 209.014,19.522 L211.588,19.522 L213.174,19.47 C213.33,18.092 213.304,16.688 213.304,15.284 C213.304,14.4 213.252,13.49 213.304,12.606 C213.59,12.45 213.928,12.424 214.24,12.424 C215.046,12.424 215.956,12.424 216.762,12.502 L216.788,13.932 L216.788,28.102 C216.788,28.7 216.71,29.298 216.658,29.896 C216.086,30 215.488,30 214.916,30 C214.396,30 213.85,30 213.33,29.948 C213.044,27.686 213.278,25.216 213.148,22.902 C212.264,22.798 211.302,22.824 210.418,22.824 C209.534,22.824 208.676,22.876 207.818,22.902 C207.74,23.994 207.74,25.086 207.74,26.204 Z" id="Verwandel-dich" fill="#FFE546"></path>
            <path d="M29.6229493,61.7255992 L29.2629493,61.7455992 L27.2229493,61.7455992 C27.0629493,61.7455992 26.9029493,61.7055992 26.7429493,61.6855992 C26.6829493,61.1055992 26.6629493,60.5255992 26.6629493,59.9455992 L26.6629493,50.1455992 C26.6629493,49.5255992 26.7029493,48.9255992 26.7429493,48.3055992 C27.2229493,48.2455992 27.7029493,48.2255992 28.1829493,48.2255992 L29.4429493,48.2655992 C29.5229493,48.2655992 29.7229493,48.3455992 29.7229493,48.3455992 C29.7229493,52.7055992 29.8029493,57.3855992 29.6229493,61.7255992 Z M44.3029493,61.7055992 L43.0829493,61.7255992 C42.0829493,61.7255992 41.0829493,61.7055992 40.0829493,61.5855992 C38.5429493,58.5655992 37.0829493,55.7255992 36.2829493,52.4255992 L36.1629493,52.4255992 L36.1429493,54.9055992 C36.1429493,57.1455992 36.3429493,59.4455992 36.1429493,61.6855992 C35.9229493,61.7255992 35.7029493,61.7455992 35.5029493,61.7455992 L33.6029493,61.7455992 L33.3029493,61.7255992 C33.2629493,60.6055992 33.2229493,59.5055992 33.2229493,58.3855992 L33.2229493,52.3055992 C33.2229493,50.9455992 33.2229493,49.6055992 33.2829493,48.2455992 L34.4629493,48.2255992 L35.8629493,48.2255992 C36.3229493,48.2255992 36.7829493,48.3255992 37.2429493,48.3855992 C38.5629493,51.5855992 40.2629493,54.8255992 41.2829493,58.0655992 L41.4229493,58.0655992 C41.4429493,57.1255992 41.4829493,56.1855992 41.4829493,55.2455992 C41.4829493,52.9455992 41.3029493,50.6255992 41.4429493,48.3255992 C41.8429493,48.2455992 42.3829493,48.2255992 42.7829493,48.2255992 C43.2629493,48.2255992 43.7429493,48.2255992 44.2029493,48.3055992 C44.5229493,51.7655992 44.3229493,55.6055992 44.3229493,59.1055992 C44.3229493,59.9655992 44.3229493,60.8455992 44.3029493,61.7055992 Z M61.6229493,61.7655992 L58.5429493,61.7655992 C56.8029493,61.7655992 54.7429493,61.9855992 53.0829493,61.6655992 C52.6829493,58.2455992 53.0229493,53.5055992 53.0229493,49.9255992 L53.0629493,48.3055992 C53.5829493,48.2455992 54.1229493,48.2455992 54.6629493,48.2455992 L60.7429493,48.2455992 L61.7029493,48.2855992 C61.7429493,48.6855992 61.7629493,49.1055992 61.7629493,49.5055992 C61.7629493,49.8855992 61.7629493,50.2655992 61.7229493,50.6455992 C61.3829493,50.6655992 60.9829493,50.7255992 60.6429493,50.7255992 C59.0429493,50.7255992 57.4429493,50.5855992 55.8629493,50.8255992 C55.8229493,51.0855992 55.8229493,51.3455992 55.8229493,51.6055992 L55.8429493,53.6055992 C57.2429493,53.7455992 58.5229493,53.6055992 60.2229493,53.6055992 C60.2629493,53.6055992 60.3229493,53.8055992 60.3629493,54.0255992 L60.2429493,55.7055992 C60.2429493,55.9655992 59.6029493,55.9855992 59.1629493,55.9855992 C58.1029493,55.9855992 56.9229493,55.9655992 55.8629493,56.0055992 L55.8229493,57.1055992 L55.8229493,58.9055992 C56.8429493,59.5055992 60.0629493,59.0055992 61.6429493,59.1455992 C61.7229493,59.5855992 61.7429493,60.0455992 61.7429493,60.4855992 C61.7429493,60.9255992 61.6829493,61.3455992 61.6229493,61.7655992 Z M67.4629493,61.7255992 L67.1029493,61.7455992 L65.0629493,61.7455992 C64.9029493,61.7455992 64.7429493,61.7055992 64.5829493,61.6855992 C64.5229493,61.1055992 64.5029493,60.5255992 64.5029493,59.9455992 L64.5029493,50.1455992 C64.5029493,49.5255992 64.5429493,48.9255992 64.5829493,48.3055992 C65.0629493,48.2455992 65.5429493,48.2255992 66.0229493,48.2255992 L67.2829493,48.2655992 C67.3629493,48.2655992 67.5629493,48.3455992 67.5629493,48.3455992 C67.5629493,52.7055992 67.6429493,57.3855992 67.4629493,61.7255992 Z M82.1429493,61.7055992 L80.9229493,61.7255992 C79.9229493,61.7255992 78.9229493,61.7055992 77.9229493,61.5855992 C76.3829493,58.5655992 74.9229493,55.7255992 74.1229493,52.4255992 L74.0029493,52.4255992 L73.9829493,54.9055992 C73.9829493,57.1455992 74.1829493,59.4455992 73.9829493,61.6855992 C73.7629493,61.7255992 73.5429493,61.7455992 73.3429493,61.7455992 L71.4429493,61.7455992 L71.1429493,61.7255992 C71.1029493,60.6055992 71.0629493,59.5055992 71.0629493,58.3855992 L71.0629493,52.3055992 C71.0629493,50.9455992 71.0629493,49.6055992 71.1229493,48.2455992 L72.3029493,48.2255992 L73.7029493,48.2255992 C74.1629493,48.2255992 74.6229493,48.3255992 75.0829493,48.3855992 C76.4029493,51.5855992 78.1029493,54.8255992 79.1229493,58.0655992 L79.2629493,58.0655992 C79.2829493,57.1255992 79.3229493,56.1855992 79.3229493,55.2455992 C79.3229493,52.9455992 79.1429493,50.6255992 79.2829493,48.3255992 C79.6829493,48.2455992 80.2229493,48.2255992 80.6229493,48.2255992 C81.1029493,48.2255992 81.5829493,48.2255992 82.0429493,48.3055992 C82.3629493,51.7655992 82.1629493,55.6055992 82.1629493,59.1055992 C82.1629493,59.9655992 82.1629493,60.8455992 82.1429493,61.7055992 Z M94.4629493,61.7655992 L91.3829493,61.7655992 C89.6429493,61.7655992 87.5829493,61.9855992 85.9229493,61.6655992 C85.5229493,58.2455992 85.8629493,53.5055992 85.8629493,49.9255992 L85.9029493,48.3055992 C86.4229493,48.2455992 86.9629493,48.2455992 87.5029493,48.2455992 L93.5829493,48.2455992 L94.5429493,48.2855992 C94.5829493,48.6855992 94.6029493,49.1055992 94.6029493,49.5055992 C94.6029493,49.8855992 94.6029493,50.2655992 94.5629493,50.6455992 C94.2229493,50.6655992 93.8229493,50.7255992 93.4829493,50.7255992 C91.8829493,50.7255992 90.2829493,50.5855992 88.7029493,50.8255992 C88.6629493,51.0855992 88.6629493,51.3455992 88.6629493,51.6055992 L88.6829493,53.6055992 C90.0829493,53.7455992 91.3629493,53.6055992 93.0629493,53.6055992 C93.1029493,53.6055992 93.1629493,53.8055992 93.2029493,54.0255992 L93.0829493,55.7055992 C93.0829493,55.9655992 92.4429493,55.9855992 92.0029493,55.9855992 C90.9429493,55.9855992 89.7629493,55.9655992 88.7029493,56.0055992 L88.6629493,57.1055992 L88.6629493,58.9055992 C89.6829493,59.5055992 92.9029493,59.0055992 94.4829493,59.1455992 C94.5629493,59.5855992 94.5829493,60.0455992 94.5829493,60.4855992 C94.5829493,60.9255992 94.5229493,61.3455992 94.4629493,61.7655992 Z M108.422949,61.7055992 L107.202949,61.7255992 C106.202949,61.7255992 105.202949,61.7055992 104.202949,61.5855992 C102.662949,58.5655992 101.202949,55.7255992 100.402949,52.4255992 L100.282949,52.4255992 L100.262949,54.9055992 C100.262949,57.1455992 100.462949,59.4455992 100.262949,61.6855992 C100.042949,61.7255992 99.8229493,61.7455992 99.6229493,61.7455992 L97.7229493,61.7455992 L97.4229493,61.7255992 C97.3829493,60.6055992 97.3429493,59.5055992 97.3429493,58.3855992 L97.3429493,52.3055992 C97.3429493,50.9455992 97.3429493,49.6055992 97.4029493,48.2455992 L98.5829493,48.2255992 L99.9829493,48.2255992 C100.442949,48.2255992 100.902949,48.3255992 101.362949,48.3855992 C102.682949,51.5855992 104.382949,54.8255992 105.402949,58.0655992 L105.542949,58.0655992 C105.562949,57.1255992 105.602949,56.1855992 105.602949,55.2455992 C105.602949,52.9455992 105.422949,50.6255992 105.562949,48.3255992 C105.962949,48.2455992 106.502949,48.2255992 106.902949,48.2255992 C107.382949,48.2255992 107.862949,48.2255992 108.322949,48.3055992 C108.642949,51.7655992 108.442949,55.6055992 108.442949,59.1055992 C108.442949,59.9655992 108.442949,60.8455992 108.422949,61.7055992 Z M120.202949,61.7655992 L119.482949,61.7255992 C119.442949,61.3655992 119.422949,61.0055992 119.422949,60.6455992 C119.422949,57.4255992 119.522949,54.2055992 119.322949,51.0055992 C118.202949,50.9455992 117.082949,50.9655992 115.962949,50.9055992 C115.902949,50.3055992 115.862949,49.7255992 115.862949,49.1255992 C115.862949,48.8455992 115.862949,48.5655992 115.922949,48.3055992 C118.182949,48.1855992 120.462949,48.2055992 122.722949,48.2055992 C123.682949,48.2055992 124.642949,48.2255992 125.602949,48.3655992 C125.762949,48.9855992 125.742949,49.6455992 125.742949,50.2655992 L125.702949,50.8855992 L124.842949,50.9255992 C123.922949,50.9255992 123.042949,50.8655992 122.122949,50.9455992 C121.902949,54.4855992 122.442949,58.1855992 122.022949,61.6855992 C121.422949,61.8055992 120.802949,61.7655992 120.202949,61.7655992 Z M133.382949,61.9855992 C129.102949,61.9855992 127.462949,58.6255992 127.462949,54.8255992 C127.462949,51.7055992 129.422949,48.0455992 132.942949,48.0455992 C136.922949,48.0455992 138.962949,51.1655992 138.962949,54.9055992 C138.962949,58.2655992 137.182949,61.9855992 133.382949,61.9855992 Z M133.222949,59.1455992 C135.582949,59.1455992 136.202949,56.8055992 136.202949,54.8655992 C136.202949,53.0455992 135.642949,50.7255992 133.342949,50.7255992 C130.722949,50.7255992 130.282949,53.6055992 130.282949,55.6455992 C130.282949,57.4055992 131.302949,59.1455992 133.222949,59.1455992 Z M149.082949,55.4655992 L149.082949,51.3455992 C149.082949,50.3855992 148.662949,48.1455992 149.622949,48.1855992 L150.102949,48.2255992 L151.762949,48.2455992 C151.822949,49.2455992 151.902949,50.2655992 151.902949,51.2855992 C151.902949,55.4455992 152.562949,61.9455992 146.702949,61.9455992 C140.402949,61.9455992 141.802949,54.4855992 141.802949,50.2055992 C141.802949,49.5655992 141.782949,48.9055992 141.842949,48.2655992 L142.622949,48.2255992 L143.822949,48.2255992 L144.562949,48.2655992 L144.582949,49.0455992 C144.542949,51.2255992 143.542949,59.1255992 146.842949,59.1255992 C148.882949,59.1255992 149.082949,57.0455992 149.082949,55.4655992 Z M154.642949,55.2055992 C154.642949,51.4255992 156.502949,47.9855992 160.342949,47.9855992 C162.262949,47.9855992 164.462949,48.8255992 165.342949,50.6255992 C164.642949,51.5255992 163.562949,51.9655992 163.082949,52.3255992 C162.582949,51.1855992 161.682949,50.8855992 160.702949,50.8855992 C158.402949,50.8855992 157.782949,52.6455992 157.782949,55.1055992 C157.782949,56.7655992 158.062949,59.1255992 160.602949,59.1255992 C161.962949,59.1255992 162.442949,58.4455992 163.322949,57.1455992 C164.082949,57.1655992 164.962949,57.7455992 165.602949,58.1055992 C165.022949,60.2055992 163.242949,61.9655992 160.342949,61.9655992 C156.642949,61.9655992 154.642949,59.1055992 154.642949,55.2055992 Z M177.822949,61.7855992 L175.782949,61.7855992 C175.542949,61.7855992 175.302949,61.7655992 175.062949,61.7255992 C174.782949,60.6255992 174.542949,59.4855992 174.262949,58.3855992 L172.882949,58.3855992 C172.162949,58.3855992 171.422949,58.4055992 170.682949,58.4455992 C170.462949,59.5455992 170.202949,60.6255992 169.902949,61.7055992 L169.202949,61.7455992 L167.922949,61.7455992 C167.622949,61.7455992 167.302949,61.7055992 167.002949,61.6655992 C167.662949,57.4055992 169.402949,52.5655992 170.382949,48.2655992 C170.842949,48.2455992 171.302949,48.2055992 171.762949,48.2055992 C172.862949,48.2055992 173.962949,48.1855992 175.062949,48.2455992 C175.602949,50.3255992 177.862949,59.9255992 177.862949,61.2855992 L177.822949,61.7855992 Z M171.982949,55.8255992 L172.262949,55.8255992 C172.782949,55.8255992 173.442949,55.8655992 173.962949,55.7455992 C173.882949,54.8655992 173.642949,54.0255992 173.482949,53.1655992 C173.222949,51.6855992 173.302949,51.1855992 172.722949,51.1855992 C172.622949,51.1855992 172.502949,51.1855992 172.402949,51.2055992 C172.122949,52.7455992 171.482949,54.2255992 171.342949,55.8055992 C171.562949,55.8255992 171.762949,55.8255992 171.982949,55.8255992 Z M191.282949,61.7055992 L190.062949,61.7255992 C189.062949,61.7255992 188.062949,61.7055992 187.062949,61.5855992 C185.522949,58.5655992 184.062949,55.7255992 183.262949,52.4255992 L183.142949,52.4255992 L183.122949,54.9055992 C183.122949,57.1455992 183.322949,59.4455992 183.122949,61.6855992 C182.902949,61.7255992 182.682949,61.7455992 182.482949,61.7455992 L180.582949,61.7455992 L180.282949,61.7255992 C180.242949,60.6055992 180.202949,59.5055992 180.202949,58.3855992 L180.202949,52.3055992 C180.202949,50.9455992 180.202949,49.6055992 180.262949,48.2455992 L181.442949,48.2255992 L182.842949,48.2255992 C183.302949,48.2255992 183.762949,48.3255992 184.222949,48.3855992 C185.542949,51.5855992 187.242949,54.8255992 188.262949,58.0655992 L188.402949,58.0655992 C188.422949,57.1255992 188.462949,56.1855992 188.462949,55.2455992 C188.462949,52.9455992 188.282949,50.6255992 188.422949,48.3255992 C188.822949,48.2455992 189.362949,48.2255992 189.762949,48.2255992 C190.242949,48.2255992 190.722949,48.2255992 191.182949,48.3055992 C191.502949,51.7655992 191.302949,55.6055992 191.302949,59.1055992 C191.302949,59.9655992 191.302949,60.8455992 191.282949,61.7055992 Z M200.142949,61.9855992 C195.862949,61.9855992 194.222949,58.6255992 194.222949,54.8255992 C194.222949,51.7055992 196.182949,48.0455992 199.702949,48.0455992 C203.682949,48.0455992 205.722949,51.1655992 205.722949,54.9055992 C205.722949,58.2655992 203.942949,61.9855992 200.142949,61.9855992 Z M199.982949,59.1455992 C202.342949,59.1455992 202.962949,56.8055992 202.962949,54.8655992 C202.962949,53.0455992 202.402949,50.7255992 200.102949,50.7255992 C197.482949,50.7255992 197.042949,53.6055992 197.042949,55.6455992 C197.042949,57.4055992 198.062949,59.1455992 199.982949,59.1455992 Z M213.842949,61.9855992 C209.562949,61.9855992 207.922949,58.6255992 207.922949,54.8255992 C207.922949,51.7055992 209.882949,48.0455992 213.402949,48.0455992 C217.382949,48.0455992 219.422949,51.1655992 219.422949,54.9055992 C219.422949,58.2655992 217.642949,61.9855992 213.842949,61.9855992 Z M213.682949,59.1455992 C216.042949,59.1455992 216.662949,56.8055992 216.662949,54.8655992 C216.662949,53.0455992 216.102949,50.7255992 213.802949,50.7255992 C211.182949,50.7255992 210.742949,53.6055992 210.742949,55.6455992 C210.742949,57.4055992 211.762949,59.1455992 213.682949,59.1455992 Z" id="in-einen-Toucanoo" fill="#FEFEFE" transform="translate(123.042949, 54.985599) rotate(-5.000000) translate(-123.042949, -54.985599) "></path>
            <path d="M260.023364,39.5455951 C257.496995,39.2495913 254.989221,38.7790369 252.480234,38.3642247 C250.437937,30.6797222 247.569888,22.9141494 244.339847,23.0487243 C241.181658,23.1803493 237.893508,30.424508 235.380985,37.6923673 C232.819144,38.3749052 230.213545,38.8933696 227.624621,39.4589301 C225.832141,39.8505502 226.590688,42.618033 228.382663,42.2265146 C230.358362,41.7949187 232.343764,41.391194 234.312086,40.9207412 C232.352252,47.0906401 231.076385,52.4850294 231.076385,52.4850294 L236.961241,52.6593766 L236.451905,56.9561106 C236.348117,56.9453284 236.243016,56.9380046 236.136601,56.9364788 C234.328356,56.9095231 232.842287,58.2651391 232.817325,59.9642618 C233.690473,59.9772819 234.830315,59.9943708 236.089407,60.0131889 L236.087992,60.0250901 L239.44567,60.073 L240.361667,52.7599772 L245.942336,52.9252714 L246.837616,60.073 L250.195295,60.0250901 L250.19388,60.0131889 C251.453072,59.9943708 252.593016,59.9772819 253.466063,59.9642618 C253.441,58.2651391 251.95493,56.9095231 250.146786,56.9364788 C250.04027,56.9380046 249.93527,56.9453284 249.831483,56.9561106 L249.365602,53.0266858 L255.667729,53.2133411 C255.667729,53.2133411 254.76871,47.6995331 253.245148,41.38682 C255.49886,41.7668442 257.753886,42.1499198 260.023364,42.4158147 C260.789389,42.505633 261.449,41.6919786 261.449,40.980654 C261.449,40.1303806 260.791714,39.6357186 260.023364,39.5455951 Z" id="Stroke-1" fill="#FFE546"></path>
            <polygon id="Fill-1" fill="#FFE546" transform="translate(245.658500, 10.523500) rotate(14.000000) translate(-245.658500, -10.523500) " points="249.47 1.267 241.847 1.70319982 247.816187 19.78"></polygon>
            <polygon id="Fill-4" fill="#FEC10E" transform="translate(235.313000, 14.879500) rotate(24.000000) translate(-235.313000, -14.879500) " points="227.69 17.6623821 242.936 18.691 229.729874 11.068"></polygon>
        </g>
    </g>
</svg>