<?xml version="1.0" encoding="UTF-8"?>
<svg width="280px" height="80px" viewBox="0 0 280 80" version="1.1" xmlns="http://www.w3.org/2000/svg" xmlns:xlink="http://www.w3.org/1999/xlink">
    <!-- Generator: Sketch 50.2 (55047) - http://www.bohemiancoding.com/sketch -->
    <title>logoIT</title>
    <desc>Created with Sketch.</desc>
    <defs></defs>
    <g id="logoIT" stroke="none" stroke-width="1" fill="none" fill-rule="evenodd">
        <g id="Group-3" transform="translate(18.000000, 3.000000)">
            <path d="M0.76,19.536 C0.76,13.488 3.736,7.984 9.88,7.984 C12.952,7.984 16.472,9.328 17.88,12.208 C16.76,13.648 15.032,14.352 14.264,14.928 C13.464,13.104 12.024,12.624 10.456,12.624 C6.776,12.624 5.784,15.44 5.784,19.376 C5.784,22.032 6.232,25.808 10.296,25.808 C12.472,25.808 13.24,24.72 14.648,22.64 C15.864,22.672 17.272,23.6 18.296,24.176 C17.368,27.536 14.52,30.352 9.88,30.352 C3.96,30.352 0.76,25.776 0.76,19.536 Z M40.184,25.776 L40.312,26.032 C40.44,27.184 40.728,28.304 40.728,29.456 C40.728,30.448 38.552,30.384 37.816,30.384 C34.36,30.384 32.504,27.536 31.224,24.112 L30.52,22.032 C30.008,21.744 29.432,21.776 28.856,21.776 C28.344,21.776 27.8,21.776 27.288,21.84 C27.224,22.48 27.224,23.152 27.224,23.792 C27.256,25.776 27.416,27.856 27.224,29.84 C26.168,30.032 25.176,30.064 24.12,30.064 L22.808,30.032 C22.168,28.976 22.424,13.296 22.424,10.672 C22.424,9.936 22.424,9.2 22.552,8.496 C23.896,8.24 25.432,8.368 26.776,8.368 C31.832,8.368 38.616,8.432 38.616,15.216 C38.616,17.968 37.336,19.536 34.744,21.136 C35.384,23.376 37.24,26.064 38.68,25.968 C39.064,25.936 39.512,26.032 40.184,25.776 Z M27.224,16.112 L27.224,18 C27.384,18.224 27.672,18.288 27.928,18.288 C30.232,18.288 33.944,18.448 33.944,15.248 C33.944,12.176 30.36,12.336 28.152,12.336 C27.096,12.336 27.256,12.816 27.256,13.712 C27.256,14.512 27.224,15.344 27.224,16.112 Z M57.976,30.032 L53.048,30.032 C50.264,30.032 46.968,30.384 44.312,29.872 C43.672,24.4 44.216,16.816 44.216,11.088 L44.28,8.496 C45.112,8.4 45.976,8.4 46.84,8.4 L56.568,8.4 L58.104,8.464 C58.168,9.104 58.2,9.776 58.2,10.416 C58.2,11.024 58.2,11.632 58.136,12.24 C57.592,12.272 56.952,12.368 56.408,12.368 C53.848,12.368 51.288,12.144 48.76,12.528 C48.696,12.944 48.696,13.36 48.696,13.776 L48.728,16.976 C50.968,17.2 53.016,16.976 55.736,16.976 C55.8,16.976 55.896,17.296 55.96,17.648 L55.768,20.336 C55.768,20.752 54.744,20.784 54.04,20.784 C52.344,20.784 50.456,20.752 48.76,20.816 L48.696,22.576 L48.696,25.456 C50.328,26.416 55.48,25.616 58.008,25.84 C58.136,26.544 58.168,27.28 58.168,27.984 C58.168,28.688 58.072,29.36 57.976,30.032 Z M78.072,30.064 L74.808,30.064 C74.424,30.064 74.04,30.032 73.656,29.968 C73.208,28.208 72.824,26.384 72.376,24.624 L70.168,24.624 C69.016,24.624 67.832,24.656 66.648,24.72 C66.296,26.48 65.88,28.208 65.4,29.936 L64.28,30 L62.232,30 C61.752,30 61.24,29.936 60.76,29.872 C61.816,23.056 64.6,15.312 66.168,8.432 C66.904,8.4 67.64,8.336 68.376,8.336 C70.136,8.336 71.896,8.304 73.656,8.4 C74.52,11.728 78.136,27.088 78.136,29.264 L78.072,30.064 Z M68.728,20.528 L69.176,20.528 C70.008,20.528 71.064,20.592 71.896,20.4 C71.768,18.992 71.384,17.648 71.128,16.272 C70.712,13.904 70.84,13.104 69.912,13.104 C69.752,13.104 69.56,13.104 69.4,13.136 C68.952,15.6 67.928,17.968 67.704,20.496 C68.056,20.528 68.376,20.528 68.728,20.528 Z M94.616,29.968 L94.04,30 L90.776,30 C90.52,30 90.264,29.936 90.008,29.904 C89.912,28.976 89.88,28.048 89.88,27.12 L89.88,11.44 C89.88,10.448 89.944,9.488 90.008,8.496 C90.776,8.4 91.544,8.368 92.312,8.368 L94.328,8.432 C94.456,8.432 94.776,8.56 94.776,8.56 C94.776,15.536 94.904,23.024 94.616,29.968 Z M100.568,10.608 L100.632,8.496 C101.528,8.4 102.52,8.368 103.416,8.368 C103.864,8.368 104.312,8.4 104.76,8.464 C105.112,12.304 105.016,16.304 105.016,20.144 C105.016,22 105.016,23.824 105.08,25.68 C107.96,25.808 110.936,25.584 113.784,25.872 C113.944,26.736 114.008,28.016 114.008,28.88 C114.008,29.232 113.976,29.584 113.912,29.936 C113.272,30 112.632,30.032 111.992,30.032 C108.248,30.032 104.44,30.16 100.696,29.808 C100.12,23.568 100.568,16.848 100.568,10.608 Z M130.552,30.032 L129.4,29.968 C129.336,29.392 129.304,28.816 129.304,28.24 C129.304,23.088 129.464,17.936 129.144,12.816 C127.352,12.72 125.56,12.752 123.768,12.656 C123.672,11.696 123.608,10.768 123.608,9.808 C123.608,9.36 123.608,8.912 123.704,8.496 C127.32,8.304 130.968,8.336 134.584,8.336 C136.12,8.336 137.656,8.368 139.192,8.592 C139.448,9.584 139.416,10.64 139.416,11.632 L139.352,12.624 L137.976,12.688 C136.504,12.688 135.096,12.592 133.624,12.72 C133.272,18.384 134.136,24.304 133.464,29.904 C132.504,30.096 131.512,30.032 130.552,30.032 Z M154.84,19.952 L154.84,13.36 C154.84,11.824 154.168,8.24 155.704,8.304 L156.472,8.368 L159.128,8.4 C159.224,10 159.352,11.632 159.352,13.264 C159.352,19.92 160.408,30.32 151.032,30.32 C140.952,30.32 143.192,18.384 143.192,11.536 C143.192,10.512 143.16,9.456 143.256,8.432 L144.504,8.368 L146.424,8.368 L147.608,8.432 L147.64,9.68 C147.576,13.168 145.976,25.808 151.256,25.808 C154.52,25.808 154.84,22.48 154.84,19.952 Z M173.208,30.384 C166.36,30.384 163.736,25.008 163.736,18.928 C163.736,13.936 166.872,8.08 172.504,8.08 C178.872,8.08 182.136,13.072 182.136,19.056 C182.136,24.432 179.288,30.384 173.208,30.384 Z M172.952,25.84 C176.728,25.84 177.72,22.096 177.72,18.992 C177.72,16.08 176.824,12.368 173.144,12.368 C168.952,12.368 168.248,16.976 168.248,20.24 C168.248,23.056 169.88,25.84 172.952,25.84 Z" id="Crea-il-tuo" fill="#FFE546"></path>
            <path d="M59.1412693,67.6146318 L57.9390943,67.5478443 C57.8723068,66.9467568 57.838913,66.3456693 57.838913,65.7445819 C57.838913,60.3681882 58.0058818,54.9917946 57.6719443,49.6487946 C55.8018943,49.5486134 53.9318443,49.5820071 52.0617944,49.4818259 C51.9616131,48.4800134 51.8948256,47.5115947 51.8948256,46.5097822 C51.8948256,46.0422697 51.8948256,45.5747572 51.9950069,45.1406385 C55.7685006,44.940276 59.575388,44.9736697 63.3488817,44.9736697 C64.9517816,44.9736697 66.5546816,45.0070635 68.1575816,45.2408197 C68.4247316,46.276026 68.3913378,47.3780197 68.3913378,48.4132259 L68.3245503,49.4484322 L66.8886191,49.5152197 C65.3525066,49.5152197 63.8831817,49.4150384 62.3470692,49.5486134 C61.979738,55.459307 62.8813692,61.6371507 62.1801004,67.4810568 C61.178288,67.6814193 60.1430817,67.6146318 59.1412693,67.6146318 Z M81.1477501,67.9819631 C74.0014877,67.9819631 71.2632003,62.3718132 71.2632003,56.0270008 C71.2632003,50.8175759 74.5357877,44.7065197 80.4130876,44.7065197 C87.0584438,44.7065197 90.4646062,49.9159446 90.4646062,56.1605758 C90.4646062,61.7707257 87.4925625,67.9819631 81.1477501,67.9819631 Z M80.8806001,63.2400507 C84.8210625,63.2400507 85.8562688,59.332982 85.8562688,56.0937883 C85.8562688,53.0549571 84.9212438,49.1812822 81.0809626,49.1812822 C76.7063814,49.1812822 75.971719,53.9899821 75.971719,57.3961445 C75.971719,60.3347945 77.6748002,63.2400507 80.8806001,63.2400507 Z M107.361843,57.0956008 L107.361843,50.2164884 C107.361843,48.6135884 106.660575,44.8734885 108.263475,44.940276 L109.064925,45.0070635 L111.836606,45.0404572 C111.936787,46.7101447 112.070362,48.4132259 112.070362,50.1163071 C112.070362,57.062207 113.172356,67.9151756 103.387987,67.9151756 C92.8689561,67.9151756 95.2065186,55.459307 95.2065186,48.3130447 C95.2065186,47.2444447 95.1731249,46.142451 95.2733061,45.073851 L96.5756623,45.0070635 L98.5792873,45.0070635 L99.814856,45.073851 L99.8482498,46.3762072 C99.7814623,50.0161259 98.1117748,63.2066569 103.621743,63.2066569 C107.027906,63.2066569 107.361843,59.733707 107.361843,57.0956008 Z M116.645306,56.661482 C116.645306,50.3500634 119.750924,44.6063385 126.162524,44.6063385 C129.368324,44.6063385 133.041637,46.008876 134.510962,49.0143134 C133.34218,50.5170321 131.538918,51.2516946 130.737468,51.8527821 C129.902624,49.9493384 128.399906,49.4484322 126.763612,49.4484322 C122.923331,49.4484322 121.888124,52.3870821 121.888124,56.4945133 C121.888124,59.2661945 122.355637,63.2066569 126.596643,63.2066569 C128.867418,63.2066569 129.668868,62.0712694 131.138193,59.9006757 C132.407155,59.9340695 133.87648,60.9024882 134.94508,61.5035757 C133.976662,65.0099194 131.004618,67.9485693 126.162524,67.9485693 C119.984681,67.9485693 116.645306,63.1732632 116.645306,56.661482 Z M155.348661,67.6480256 L151.942499,67.6480256 C151.541774,67.6480256 151.141049,67.6146318 150.740324,67.5478443 C150.272811,65.7111881 149.872086,63.8077444 149.404574,61.9710882 L147.100405,61.9710882 C145.89823,61.9710882 144.662661,62.0044819 143.427093,62.0712694 C143.059761,63.9079256 142.625643,65.7111881 142.124737,67.5144506 L140.955955,67.5812381 L138.818755,67.5812381 C138.317849,67.5812381 137.783549,67.5144506 137.282643,67.4476631 C138.384637,60.3347945 141.289893,52.2535071 142.926186,45.073851 C143.694243,45.0404572 144.462299,44.9736697 145.230355,44.9736697 C147.067011,44.9736697 148.903668,44.940276 150.740324,45.0404572 C151.641955,48.5134072 155.415449,64.5424069 155.415449,66.8131818 L155.348661,67.6480256 Z M145.597686,57.6966883 L146.065199,57.6966883 C146.933436,57.6966883 148.03543,57.7634758 148.903668,57.5631133 C148.770093,56.0937883 148.369368,54.6912508 148.102218,53.2553196 C147.668099,50.7841821 147.801674,49.9493384 146.833255,49.9493384 C146.666286,49.9493384 146.465924,49.9493384 146.298955,49.9827321 C145.831443,52.5540508 144.762843,55.0251883 144.529086,57.6632945 C144.896418,57.6966883 145.230355,57.6966883 145.597686,57.6966883 Z M177.822655,67.5144506 L175.785636,67.5478443 C174.115948,67.5478443 172.446261,67.5144506 170.776573,67.3140881 C168.205255,62.2716319 165.767511,57.5297195 164.431761,52.0197509 L164.231399,52.0197509 L164.198005,56.1605758 C164.198005,59.9006757 164.531942,63.7409569 164.198005,67.4810568 C163.830674,67.5478443 163.463342,67.5812381 163.129405,67.5812381 L159.956999,67.5812381 L159.456092,67.5478443 C159.389305,65.6777944 159.322517,63.8411381 159.322517,61.9710882 L159.322517,51.8193884 C159.322517,49.5486134 159.322517,47.3112322 159.422699,45.0404572 L161.39293,45.0070635 L163.730492,45.0070635 C164.498549,45.0070635 165.266605,45.1740322 166.034661,45.2742135 C168.238649,50.6172134 171.077117,56.0270008 172.780198,61.4367882 L173.013955,61.4367882 C173.047348,59.867282 173.114136,58.2977757 173.114136,56.7282695 C173.114136,52.8879883 172.813592,49.0143134 173.047348,45.1740322 C173.715223,45.0404572 174.616855,45.0070635 175.28473,45.0070635 C176.08618,45.0070635 176.88763,45.0070635 177.655686,45.1406385 C178.189986,50.9177571 177.856048,57.329357 177.856048,63.1732632 C177.856048,64.6091944 177.856048,66.0785194 177.822655,67.5144506 Z M195.955461,57.0956008 L195.955461,50.2164884 C195.955461,48.6135884 195.254192,44.8734885 196.857092,44.940276 L197.658542,45.0070635 L200.430223,45.0404572 C200.530404,46.7101447 200.663979,48.4132259 200.663979,50.1163071 C200.663979,57.062207 201.765973,67.9151756 191.981604,67.9151756 C181.462573,67.9151756 183.800136,55.459307 183.800136,48.3130447 C183.800136,47.2444447 183.766742,46.142451 183.866923,45.073851 L185.169279,45.0070635 L187.172904,45.0070635 L188.408473,45.073851 L188.441867,46.3762072 C188.375079,50.0161259 186.705392,63.2066569 192.215361,63.2066569 C195.621523,63.2066569 195.955461,59.733707 195.955461,57.0956008 Z M195.187404,43.5377385 C194.185592,43.5377385 188.441867,40.9330261 188.441867,39.9980011 C188.441867,39.3301261 189.343498,37.3932886 190.144948,37.3932886 C190.913004,37.3932886 196.523154,41.0332073 196.523154,41.5007198 C196.523154,42.0350198 195.821886,43.5377385 195.187404,43.5377385 Z" id="toucanù" fill="#FEFEFE" transform="translate(126.298025, 52.687626) rotate(-5.000000) translate(-126.298025, -52.687626) "></path>
            <path d="M243.023364,39.5455951 C240.496995,39.2495913 237.989221,38.7790369 235.480234,38.3642247 C233.437937,30.6797222 230.569888,22.9141494 227.339847,23.0487243 C224.181658,23.1803493 220.893508,30.424508 218.380985,37.6923673 C215.819144,38.3749052 213.213545,38.8933696 210.624621,39.4589301 C208.832141,39.8505502 209.590688,42.618033 211.382663,42.2265146 C213.358362,41.7949187 215.343764,41.391194 217.312086,40.9207412 C215.352252,47.0906401 214.076385,52.4850294 214.076385,52.4850294 L219.961241,52.6593766 L219.451905,56.9561106 C219.348117,56.9453284 219.243016,56.9380046 219.136601,56.9364788 C217.328356,56.9095231 215.842287,58.2651391 215.817325,59.9642618 C216.690473,59.9772819 217.830315,59.9943708 219.089407,60.0131889 L219.087992,60.0250901 L222.44567,60.073 L223.361667,52.7599772 L228.942336,52.9252714 L229.837616,60.073 L233.195295,60.0250901 L233.19388,60.0131889 C234.453072,59.9943708 235.593016,59.9772819 236.466063,59.9642618 C236.441,58.2651391 234.95493,56.9095231 233.146786,56.9364788 C233.04027,56.9380046 232.93527,56.9453284 232.831483,56.9561106 L232.365602,53.0266858 L238.667729,53.2133411 C238.667729,53.2133411 237.76871,47.6995331 236.245148,41.38682 C238.49886,41.7668442 240.753886,42.1499198 243.023364,42.4158147 C243.789389,42.505633 244.449,41.6919786 244.449,40.980654 C244.449,40.1303806 243.791714,39.6357186 243.023364,39.5455951 Z" id="Stroke-1" fill="#FFE546"></path>
            <polygon id="Fill-1" fill="#FFE546" transform="translate(228.658500, 10.523500) rotate(14.000000) translate(-228.658500, -10.523500) " points="232.47 1.267 224.847 1.70319982 230.816187 19.78"></polygon>
            <polygon id="Fill-4" fill="#FEC10E" transform="translate(218.313000, 14.879500) rotate(24.000000) translate(-218.313000, -14.879500) " points="210.69 17.6623821 225.936 18.691 212.729874 11.068"></polygon>
        </g>
    </g>
</svg>