<?xml version="1.0" encoding="UTF-8"?>
<svg width="180px" height="180px" viewBox="0 0 180 180" version="1.1" xmlns="http://www.w3.org/2000/svg" xmlns:xlink="http://www.w3.org/1999/xlink">
    <!-- Generator: Sketch 50 (54983) - http://www.bohemiancoding.com/sketch -->
    <title>splat-orange-dark</title>
    <desc>Created with Sketch.</desc>
    <defs>
        <path d="M123.69172,152.657644 C126.717159,152.748933 128.785885,151.183986 129.442379,148.064761 C130.054443,145.156568 127.993607,142.223082 125.10229,142.015213 C121.745074,141.774147 119.615308,143.425246 118.947602,146.544075 C118.326818,149.443179 120.395959,152.192507 123.69172,152.657644" id="path-1"></path>
    </defs>
    <g id="splat-orange-dark" stroke="none" stroke-width="1" fill="none" fill-rule="evenodd">
        <path d="M75.2204722,126.672105 C76.210571,117.100432 93.0579736,106.661412 94.5047993,120.794866 C95.058217,126.201452 91.3316877,130.438522 89.8538109,135.548476 C87.8802951,142.370978 90.1651083,148.163578 95.9551624,144.872957 C105.167523,139.636836 92.1004981,119.044351 107.97431,118.631441 C115.129435,118.445157 115.968209,124.61784 118.966019,129.956398 C121.600256,134.645533 128.909457,132.841229 125.874307,127.197339 C123.068699,121.980597 116.363619,120.792493 116.575081,113.753254 C116.709898,109.254753 119.989527,103.715673 124.794199,103.048848 C129.635425,102.376485 133.242859,107.459941 138.216543,107.270097 C143.462613,107.069971 145.995442,101.200246 141.096045,97.9420569 C137.338464,95.4436371 131.946179,97.5690935 127.789258,95.2150339 C123.267584,92.6545194 120.682478,87.4674407 121.779094,82.2938092 C123.04826,76.3062237 128.241268,73.9992294 132.898152,71.1385248 C137.204041,68.4929763 142.88404,60.8142013 134.358342,58.3039163 C123.105646,54.9907513 124.512773,77.3444304 114.600779,76.3817656 C110.200558,75.9542221 106.787685,69.2139861 105.683208,65.5468421 C104.010377,59.9919416 105.604204,55.1212688 107.84421,50.0085454 C109.590934,46.022227 113.357162,40.2794605 110.302752,36.0574197 C106.963772,31.4406626 100.654103,33.5344784 99.0901479,38.3260498 C95.8659395,48.2038455 106.919751,65.1683416 94.1836755,71.6756238 C82.5571872,77.6165395 80.1253723,56.4343531 78.7752375,49.6019639 C78.177798,46.5771238 77.0929735,36.4912912 72.3983563,36.9101335 C65.7298303,37.5049765 70.6677469,48.609636 71.7969862,51.5241295 C74.7507746,59.14872 88.8043611,81.5324576 70.2015868,81.2200068 C64.1639097,81.1187569 50.2895551,62.900898 46.6125504,73.4035953 C42.0464614,86.4474273 66.6424978,80.6200222 66.4015567,92.0845933 C66.2341164,100.048529 58.5181059,99.9781287 52.7705015,100.065931 C50.8162452,100.09599 46.4958139,99.400688 46.4297811,102.499488 C46.3727885,105.169558 48.8891096,105.033108 50.799344,105.113 C58.5707749,105.438503 64.4575198,101.645588 70.4118698,109.269783 C74.6977125,114.757842 73.3519013,120.194882 69.5035258,125.490725 C67.7807774,127.861 62.0068385,137.46906 68.8007482,137.921916 C73.582623,138.24109 75.1418617,132.036767 75.2204722,126.672105" id="Mask" fill="#F58A1E" transform="translate(94.884195, 89.650808) scale(-1, 1) rotate(-49.000000) translate(-94.884195, -89.650808) "></path>
        <path d="M27.3152515,101.96321 C31.4085036,102.092036 34.2071903,99.8825585 35.095309,95.4788488 C35.9235544,91.3731918 33.1359979,87.2320887 29.2239006,86.9386097 C24.6812159,86.5982503 21.8000116,88.9285498 20.8965409,93.3322595 C20.0567814,97.4253388 22.8558519,101.306122 27.3152515,101.96321" id="Mask" fill="#F58A1E" transform="translate(27.994792, 94.437229) scale(-1, 1) rotate(-49.000000) translate(-27.994792, -94.437229) "></path>
        <path d="M74.4219094,57.7716911 C76.7355868,57.8418294 78.317476,56.64455 78.8194101,54.2594694 C79.2874836,52.0355172 77.7115698,49.7922297 75.5006695,49.6333759 C72.9332366,49.4491208 71.3047392,50.7112307 70.7940411,53.0966904 C70.3191955,55.3138183 71.9014831,57.4160711 74.4219094,57.7716911" id="Mask" fill="#F58A1E" transform="translate(74.806041, 53.695145) scale(-1, 1) rotate(-49.000000) translate(-74.806041, -53.695145) "></path>
        <path d="M63.8101019,39.4070251 C66.1237792,39.4771634 67.70527,38.279884 68.2076025,35.8948034 C68.675676,33.6708512 67.0997622,31.4275636 64.8888619,31.2687099 C62.321429,31.0844548 60.6929316,32.3465647 60.1822335,34.7320244 C59.7073879,36.9491523 61.2896755,39.0514051 63.8101019,39.4070251" id="Mask" fill="#F58A1E" transform="translate(64.194233, 35.330479) scale(-1, 1) rotate(-49.000000) translate(-64.194233, -35.330479) "></path>
        <path d="M69.6645947,27.8796983 C73.2240574,27.9927521 75.6576032,26.0592217 76.4297822,22.2060988 C77.1500436,18.6131547 74.7257965,14.9896241 71.3244116,14.7333171 C67.3740163,14.4348085 64.8691806,16.4744238 64.0830534,20.3275466 C63.3527185,23.9088756 65.7870392,27.305137 69.6645947,27.8796983" id="Mask" fill="#F58A1E" transform="translate(70.255424, 21.294491) scale(-1, 1) rotate(-49.000000) translate(-70.255424, -21.294491) "></path>
        <mask id="mask-2" fill="white">
            <use xlink:href="#path-1"></use>
        </mask>
        <use id="Mask" fill="#F58A1E" transform="translate(124.194116, 147.326744) scale(-1, 1) rotate(-49.000000) translate(-124.194116, -147.326744) " xlink:href="#path-1"></use>
    </g>
</svg>