<?xml version="1.0" encoding="UTF-8"?>
<svg width="180px" height="180px" viewBox="0 0 180 180" version="1.1" xmlns="http://www.w3.org/2000/svg" xmlns:xlink="http://www.w3.org/1999/xlink">
    <!-- Generator: Sketch 50 (54983) - http://www.bohemiancoding.com/sketch -->
    <title>splat-orange</title>
    <desc>Created with Sketch.</desc>
    <defs></defs>
    <g id="splat-orange" stroke="none" stroke-width="1" fill="none" fill-rule="evenodd">
        <path d="M66.0317995,44.7060208 C76.1340563,51.8894298 77.0963185,77.5161262 60.3244861,70.1916481 C53.9084074,67.389503 51.5333169,60.4989191 46.7459449,55.5931347 C40.3533778,49.0423991 32.4005009,47.9493274 32.3983635,56.5682213 C32.3945162,70.2818468 63.8208621,68.5877353 54.1606218,86.7617089 C49.8067167,94.9535482 42.3497191,91.9876775 34.45156,91.98725 C27.5130982,91.98725 24.8751062,101.379032 33.1396175,101.531215 C40.7787224,101.671857 46.3872875,94.8582197 54.1465149,99.5579578 C59.1048797,102.561874 63.2245246,109.772642 60.9084266,115.617178 C58.5748019,121.505743 50.5736196,122.35515 47.6145886,128.087258 C44.4935418,134.133564 49.4608837,140.712514 56.2390397,137.248199 C61.437222,134.591825 62.4926753,127.160476 67.7831936,123.9612 C73.5379575,120.481924 81.0035048,120.852123 86.105931,125.368472 C92.0107411,130.595295 91.286159,137.917208 91.524694,144.985197 C91.7452748,151.520116 96.7339908,162.796239 104.986105,154.766842 C115.877494,144.169134 89.912659,131.589618 97.3136565,121.015421 C100.599284,116.320813 110.333906,116.741883 115.150774,117.819565 C122.446611,119.452547 126.892852,124.337385 131.197169,130.105401 C134.553759,134.603367 138.591327,142.492549 145.274582,141.721799 C152.580679,140.880087 154.256408,132.433041 149.880274,127.631134 C140.859975,117.733214 114.786559,119.454684 115.611172,100.959244 C116.363968,84.0749839 141.668343,94.755624 150.191481,97.5624714 C153.964011,98.8047344 165.965998,103.972565 168.49028,98.4097409 C172.075999,90.5081619 156.474613,89.0423258 152.486205,88.4690724 C142.051795,86.9698927 107.988312,88.6417751 120.20233,67.8490462 C124.166372,61.099959 153.443765,56.9897186 144.010518,46.1846813 C132.295798,32.7651635 123.145117,64.213311 110.442059,56.6750918 C101.618829,51.4392912 106.617804,42.7767941 110.184715,36.2358906 C111.397481,34.0112738 114.932331,29.5765746 111.499222,27.53834 C108.541901,25.7818161 107.089744,28.7075035 105.781649,30.8128528 C100.46078,39.3757466 100.960506,48.4221226 88.6131135,50.3090285 C79.7261883,51.6671391 74.4869678,46.7023621 71.0025613,39.0034097 C69.4426791,35.5574765 62.3507512,22.9527396 57.509944,30.3323629 C54.1029117,35.5258428 60.0658594,41.2173394 66.0317995,44.7060208" id="Fill-10" fill="#FEC10E"></path>
        <path d="M154.921852,62.7181623 C151.656964,68.0901753 152.516602,73.5106696 157.771392,78.0469236 C162.670894,82.2749236 170.349023,81.6989373 173.697848,76.6945135 C177.587202,70.8832748 176.626984,65.2616195 171.383772,60.7051047 C166.51032,56.469145 159.173007,57.2585936 154.921852,62.7181623" id="Fill-12" fill="#FEC10E"></path>
    </g>
</svg>