<?xml version="1.0" encoding="UTF-8"?>
<svg width="180px" height="180px" viewBox="0 0 180 180" version="1.1" xmlns="http://www.w3.org/2000/svg" xmlns:xlink="http://www.w3.org/1999/xlink">
    <!-- Generator: Sketch 50 (54983) - http://www.bohemiancoding.com/sketch -->
    <title>splat-pink</title>
    <desc>Created with Sketch.</desc>
    <defs></defs>
    <g id="splat-pink" stroke="none" stroke-width="1" fill="none" fill-rule="evenodd">
        <path d="M104.701866,153.580232 C97.4970117,144.018924 104.090181,120.14402 117.394474,131.781821 C122.483987,136.234179 122.659797,143.271342 125.636216,149.185726 C129.609642,157.082244 136.612848,160.409577 139.130362,152.474865 C143.135805,139.85021 113.707512,132.238459 127.906023,118.325332 C134.305407,112.054287 140.305988,116.961036 147.577684,119.26613 C153.965835,121.291511 159.13567,113.414652 151.57077,110.862424 C144.578236,108.503972 137.426181,113.139434 131.653648,106.548237 C127.965001,102.336274 126.276548,94.4947997 130.114605,89.7902522 C133.981871,85.0491961 141.596762,86.6027752 145.993706,82.1891727 C150.632178,77.5323672 147.978734,70.02621 140.727259,71.2371704 C135.165361,72.1661725 132.02549,78.7006407 126.22094,80.1014455 C119.906371,81.6252561 113.140762,79.105043 109.761047,73.458575 C105.849969,66.9229835 108.654509,60.3935703 110.497429,53.8164152 C112.201609,47.7357763 110.899602,35.8985821 100.958173,40.8828412 C87.8375532,47.4599963 108.072032,66.6196817 98.1721684,74.1949243 C93.776348,77.558204 84.9364016,74.3297251 80.8163732,71.9319561 C74.5753868,68.2996365 71.9079001,62.504326 69.6279825,55.9372809 C67.8507814,50.8170976 66.4353116,42.3757599 60.0572717,41.1344694 C53.0843974,39.7774748 49.0767079,47.0645807 51.7037526,52.7627224 C57.1201717,64.5083644 81.6285833,70.5328363 75.4712893,87.3200277 C69.8504135,102.645192 49.6698572,85.4272 42.6419369,80.355882 C39.5307116,78.1108872 29.9886472,69.8504073 26.041059,74.2348029 C20.4336638,80.463161 34.3704252,86.3663122 37.8748366,88.0580621 C47.0450593,92.4834596 78.8948167,100.88548 61.5811486,116.463958 C55.9613961,121.520673 27.8059028,116.759958 33.3374692,129.461562 C40.2069917,145.23494 57.8104941,118.952718 67.3059379,129.599733 C73.9019152,136.995803 66.7706431,143.511175 61.5777784,148.492625 C59.8123729,150.186622 55.26321,153.238175 57.82903,156.116733 C60.0392975,158.596506 62.2304673,156.326798 64.0486721,154.77041 C71.446749,148.439828 73.6272466,139.965352 85.5464017,141.831781 C94.1251603,143.175296 97.4998202,149.27447 98.4608793,157.379929 C98.8911372,161.007755 101.742298,174.68161 108.352879,169.300812 C113.005956,165.513472 109.176323,158.533037 104.701866,153.580232" id="Fill-15" fill="#ED3D95" transform="translate(90.027483, 105.113703) rotate(-53.000000) translate(-90.027483, -105.113703) "></path>
        <path d="M104.547951,13.3903029 C106.701487,11.5098319 107.073891,9.04241579 105.419139,6.35370174 C103.876164,3.84640708 100.467803,3.04097237 98.3277472,4.75013403 C95.8428111,6.73507564 95.4866969,9.30527733 97.1335849,12.0007314 C98.6647638,14.5069027 101.954046,15.1730433 104.547951,13.3903029" id="Fill-17" fill="#ED3D95" transform="translate(101.288094, 9.119601) rotate(-53.000000) translate(-101.288094, -9.119601) "></path>
        <path d="M73.9056742,39.7744713 C79.3771393,34.9980301 80.3230327,28.7281084 76.1187501,21.8982018 C72.1986849,15.5294262 63.5407275,13.4827009 58.1046491,17.8260946 C51.7923275,22.8682058 50.8874378,29.395934 55.0714993,36.245499 C58.9601097,42.6109046 67.3169989,44.3032161 73.9056742,39.7744713" id="Fill-19" fill="#ED3D95" transform="translate(65.625061, 28.925251) rotate(-53.000000) translate(-65.625061, -28.925251) "></path>
        <path d="M27.3848058,77.2118131 C30.792044,74.237209 31.3806997,70.3336029 28.7632038,66.080638 C26.32208,62.1146865 20.9309371,60.840819 17.5461667,63.5446982 C13.6154293,66.6849949 13.0514881,70.7492386 15.6571885,75.0139986 C18.078653,78.9782651 23.2821899,80.0319579 27.3848058,77.2118131" id="Fill-21" fill="#ED3D95" transform="translate(22.228667, 70.456300) rotate(-53.000000) translate(-22.228667, -70.456300) "></path>
    </g>
</svg>