<?xml version="1.0" encoding="UTF-8"?>
<svg width="180px" height="180px" viewBox="0 0 180 180" version="1.1" xmlns="http://www.w3.org/2000/svg" xmlns:xlink="http://www.w3.org/1999/xlink">
    <!-- Generator: Sketch 50 (54983) - http://www.bohemiancoding.com/sketch -->
    <title>splat-yellow</title>
    <desc>Created with Sketch.</desc>
    <defs></defs>
    <g id="splat-yellow" stroke="none" stroke-width="1" fill="none" fill-rule="evenodd">
        <path d="M72.7477358,131.840353 C73.8160618,121.488269 91.9945686,110.198119 93.5557072,125.483923 C94.1528502,131.331325 90.1318898,135.913858 88.5372468,141.440445 C86.4078045,148.819208 88.8731397,155.084099 95.1206628,151.525183 C105.060887,145.862142 90.9614435,123.590682 108.089437,123.144106 C115.809884,122.942634 116.714929,129.618597 119.949595,135.392426 C122.791961,140.463882 130.678658,138.512466 127.403703,132.408411 C124.376425,126.76633 117.141581,125.481356 117.36975,117.868183 C117.515219,113.002905 121.05397,107.012205 126.238256,106.291011 C131.461984,105.563828 135.35444,111.061755 140.721093,110.856433 C146.381652,110.63999 149.114598,104.291687 143.828102,100.767846 C139.773637,98.0657213 133.955311,100.364473 129.469953,97.8184792 C124.591024,95.0491973 121.801671,89.4391983 122.98493,83.843743 C124.354372,77.3679692 129.957676,74.8728778 134.982498,71.7789302 C139.628593,68.917681 145.757366,60.6128294 136.558057,57.8978722 C124.416292,54.3145736 125.934595,78.4908245 115.23946,77.4496703 C110.49158,76.9872678 106.809057,69.6974773 105.617316,65.7313385 C103.812316,59.723528 105.53207,54.4557326 107.949057,48.9261514 C109.83379,44.6148149 113.897585,38.403821 110.601848,33.8375428 C106.999057,28.8443657 100.190864,31.1088975 98.5033418,36.291142 C95.0243905,46.9743081 106.951557,65.3219776 93.2092116,72.3598207 C80.6641207,78.7851195 78.0401695,55.8758772 76.5833613,48.4864199 C75.9387184,45.2149543 74.7681825,34.3067894 69.7026461,34.7597813 C62.5072434,35.4031239 67.8353021,47.4131841 69.0537621,50.5653063 C72.2409277,58.8115556 87.4048805,83.0203158 67.332311,82.6823898 C60.8176003,82.5728847 45.8470404,62.8696616 41.8795175,74.2286797 C36.9526642,88.3360197 63.4920203,82.0334864 63.2320426,94.4328032 C63.0513729,103.046066 54.7257246,102.969925 48.524005,103.064887 C46.415344,103.097396 41.7535577,102.345404 41.6823077,105.69686 C41.6208122,108.58463 44.3359464,108.437054 46.3971074,108.523461 C54.7825549,108.875503 61.1344084,104.773338 67.5592083,113.01916 C72.1836732,118.95468 70.7315302,124.835019 66.5790966,130.562651 C64.7202348,133.126183 58.4901,143.51762 65.8207929,144.007399 C70.9804811,144.352597 72.6629144,137.642414 72.7477358,131.840353" id="Mask" fill="#FFE546" transform="translate(93.965079, 91.800583) scale(-1, 1) rotate(-25.000000) translate(-93.965079, -91.800583) "></path>
        <path d="M50.0229978,164.713522 C54.4559984,164.852397 57.4869821,162.470573 58.4488164,157.72336 C59.345808,153.29745 56.3268785,148.833328 52.0900688,148.516956 C47.1703318,148.150048 44.0499815,150.662118 43.0715208,155.409331 C42.1620595,159.821683 45.1934588,164.005179 50.0229978,164.713522" id="Mask" fill="#FFE546" transform="translate(50.758941, 156.600491) scale(-1, 1) rotate(-25.000000) translate(-50.758941, -156.600491) "></path>
        <path d="M21.4234447,117.630156 C23.9566974,117.707169 25.688713,116.392534 26.2382823,113.77367 C26.7507775,111.331728 25.0253044,108.868555 22.6045825,108.694131 C19.793492,108.491815 18.0104449,109.877636 17.45128,112.496916 C16.93137,114.931365 18.6638217,117.239678 21.4234447,117.630156" id="Mask" fill="#FFE546" transform="translate(21.844031, 113.154031) scale(-1, 1) rotate(-25.000000) translate(-21.844031, -113.154031) "></path>
        <path d="M42.5774533,30.3976603 C49.6276797,30.6119935 54.4467911,26.9532673 55.9774962,19.6647787 C57.4038075,12.8686772 52.6016905,6.01348934 45.8646456,5.52805353 C38.0411764,4.96499432 33.0788269,8.82183402 31.5226302,16.1114812 C30.0756829,22.8867286 34.8972221,29.3109329 42.5774533,30.3976603" id="Mask" fill="#FFE546" transform="translate(43.747976, 17.940280) scale(-1, 1) rotate(-25.000000) translate(-43.747976, -17.940280) "></path>
        <path d="M36.0339208,73.9137434 C39.8337562,74.0362162 42.4316409,71.9415967 43.2559657,67.767457 C44.0248668,63.8751724 41.4369088,59.9497531 37.8058262,59.6720923 C33.5886582,59.3487139 30.9146692,61.5582565 30.0754545,65.7323961 C29.2957995,69.6120979 31.8945114,73.2913135 36.0339208,73.9137434" id="Mask" fill="#FFE546" transform="translate(36.664649, 66.779899) scale(-1, 1) rotate(-25.000000) translate(-36.664649, -66.779899) "></path>
    </g>
</svg>