<?xml version="1.0" encoding="UTF-8"?>
<svg width="240px" height="68px" viewBox="0 0 240 68" version="1.1" xmlns="http://www.w3.org/2000/svg" xmlns:xlink="http://www.w3.org/1999/xlink">
    <!-- Generator: Sketch 50 (54983) - http://www.bohemiancoding.com/sketch -->
    <title>Group 3</title>
    <desc>Created with Sketch.</desc>
    <defs></defs>
    <g id="Page-1" stroke="none" stroke-width="1" fill="none" fill-rule="evenodd">
        <g id="Artboard-3-Copy-5" transform="translate(-57.000000, -90.000000)">
            <g id="Group-3" transform="translate(57.000000, 90.000000)">
                <path d="M8.0239474,32.0365342 L6.7087162,31.9634658 C6.6356478,31.3058502 6.5991136,30.6482346 6.5991136,29.990619 C6.5991136,24.1086128 6.7817846,18.2266066 6.4164426,12.3811346 C4.3705274,12.271532 2.3246122,12.3080662 0.278697,12.1984636 C0.1690944,11.1024376 0.096026,10.0429458 0.096026,8.9469198 C0.096026,8.435441 0.096026,7.9239622 0.2056286,7.4490176 C4.3339932,7.2298124 8.498892,7.2663466 12.6272566,7.2663466 C14.3808982,7.2663466 16.1345398,7.3028808 17.8881814,7.5586202 C18.180455,8.6911804 18.1439208,9.896809 18.1439208,11.0293692 L18.0708524,12.1619294 L16.4998818,12.2349978 C14.8193086,12.2349978 13.2118038,12.1253952 11.5312306,12.271532 C11.1293544,18.7380854 12.1157778,25.4969124 11.3485596,31.8903974 C10.2525336,32.1096026 9.1199734,32.0365342 8.0239474,32.0365342 Z" id="Path" fill="#FFE546"></path>
                <path d="M32.0999852,32.4384104 C24.2816664,32.4384104 21.285862,26.3006648 21.285862,19.3591668 C21.285862,13.6598316 24.8662136,6.974073 31.2962328,6.974073 C38.5665386,6.974073 42.293027,12.6734082 42.293027,19.5053036 C42.293027,25.6430492 39.0414832,32.4384104 32.0999852,32.4384104 Z M31.8077116,27.250554 C36.1187472,27.250554 37.2513074,22.9760526 37.2513074,19.4322352 C37.2513074,16.107623 36.2283498,11.8696558 32.0269168,11.8696558 C27.2409366,11.8696558 26.4371842,17.1305806 26.4371842,20.857069 C26.4371842,24.0720786 28.3004284,27.250554 31.8077116,27.250554 Z" id="Combined-Shape" fill="#FFE546"></path>
                <path d="M60.7793322,20.5282612 L60.7793322,13.002216 C60.7793322,11.2485744 60.012114,7.156744 61.7657556,7.2298124 L62.6425764,7.3028808 L65.674915,7.339415 C65.7845176,9.166125 65.9306544,11.0293692 65.9306544,12.8926134 C65.9306544,20.491727 67.136283,32.365342 56.4317624,32.365342 C44.9234894,32.365342 47.4808834,18.7380854 47.4808834,10.9197666 C47.4808834,9.7506722 47.4443492,8.5450436 47.5539518,7.3759492 L48.9787856,7.3028808 L51.1708376,7.3028808 L52.522603,7.3759492 L52.5591372,8.800783 C52.4860688,12.7830108 50.6593588,27.2140198 56.6875018,27.2140198 C60.4139902,27.2140198 60.7793322,23.414463 60.7793322,20.5282612 Z" id="Path" fill="#FFE546"></path>
                <path d="M70.9358398,20.0533166 C70.9358398,13.1483528 74.3335204,6.8644704 81.3480868,6.8644704 C84.85537,6.8644704 88.874132,8.3989068 90.4816368,11.6869848 C89.2029398,13.3310238 87.230093,14.1347762 86.3532722,14.7923918 C85.4399172,12.7099424 83.7958782,12.1619294 82.0057024,12.1619294 C77.8042694,12.1619294 76.6717092,15.376939 76.6717092,19.8706456 C76.6717092,22.9029842 77.183188,27.2140198 81.8230314,27.2140198 C84.307357,27.2140198 85.1841778,25.971857 86.7916826,23.597134 C88.1799822,23.6336682 89.787487,24.69316 90.9565814,25.3507756 C89.8970896,29.1868666 86.6455458,32.4018762 81.3480868,32.4018762 C74.5892598,32.4018762 70.9358398,27.1774856 70.9358398,20.0533166 Z" id="Path" fill="#FFE546"></path>
                <path d="M113.278978,32.0730684 L109.552489,32.0730684 C109.114079,32.0730684 108.675668,32.0365342 108.237258,31.9634658 C107.725779,29.9540848 107.287369,27.8716354 106.77589,25.8622544 L104.25503,25.8622544 C102.939799,25.8622544 101.588034,25.8987886 100.236268,25.971857 C99.834392,27.981238 99.3594474,29.9540848 98.8114344,31.9269316 L97.5327374,32 L95.1945486,32 C94.6465356,32 94.0619884,31.9269316 93.5139754,31.8538632 C94.719604,24.0720786 97.8980794,15.2308022 99.6882552,7.3759492 C100.528542,7.339415 101.368828,7.2663466 102.209115,7.2663466 C104.218496,7.2663466 106.227877,7.2298124 108.237258,7.339415 C109.223681,11.1389718 113.352046,28.6753878 113.352046,31.1597134 L113.278978,32.0730684 Z M102.610991,21.1858768 L103.12247,21.1858768 C104.072359,21.1858768 105.277988,21.2589452 106.227877,21.03974 C106.08174,19.4322352 105.64333,17.8977988 105.351056,16.3268282 C104.876112,13.6232974 105.022248,12.7099424 103.962757,12.7099424 C103.780086,12.7099424 103.56088,12.7099424 103.378209,12.7464766 C102.866731,15.55961 101.697636,18.2631408 101.441897,21.1493426 C101.843773,21.1858768 102.209115,21.1858768 102.610991,21.1858768 Z" id="Combined-Shape" fill="#FFE546"></path>
                <path d="M137.866494,31.9269316 L135.637908,31.9634658 C133.811198,31.9634658 131.984488,31.9269316 130.157778,31.7077264 C127.344645,26.1910622 124.677648,21.0032058 123.21628,14.9750628 L122.997075,14.9750628 L122.960541,19.5053036 C122.960541,23.597134 123.325883,27.798567 122.960541,31.8903974 C122.558664,31.9634658 122.156788,32 121.791446,32 L118.320697,32 L117.772684,31.9634658 C117.699616,29.9175506 117.626547,27.9081696 117.626547,25.8622544 L117.626547,14.7558576 C117.626547,12.271532 117.626547,9.8237406 117.73615,7.339415 L119.891668,7.3028808 L122.449062,7.3028808 C123.289348,7.3028808 124.129635,7.4855518 124.969922,7.5951544 C127.381179,13.4406264 130.486586,19.3591668 132.34983,25.2777072 L132.605569,25.2777072 C132.642104,23.5605998 132.715172,21.8434924 132.715172,20.126385 C132.715172,15.924952 132.386364,11.6869848 132.642104,7.4855518 C133.372788,7.339415 134.359211,7.3028808 135.089895,7.3028808 C135.966716,7.3028808 136.843537,7.3028808 137.683823,7.4490176 C138.26837,13.7694342 137.903028,20.7840006 137.903028,27.1774856 C137.903028,28.7484562 137.903028,30.355961 137.866494,31.9269316 Z" id="Path" fill="#FFE546"></path>
                <path d="M154.051145,32.4384104 C146.232826,32.4384104 143.237022,26.3006648 143.237022,19.3591668 C143.237022,13.6598316 146.817373,6.974073 153.247392,6.974073 C160.517698,6.974073 164.244187,12.6734082 164.244187,19.5053036 C164.244187,25.6430492 160.992643,32.4384104 154.051145,32.4384104 Z M153.758871,27.250554 C158.069907,27.250554 159.202467,22.9760526 159.202467,19.4322352 C159.202467,16.107623 158.179509,11.8696558 153.978076,11.8696558 C149.192096,11.8696558 148.388344,17.1305806 148.388344,20.857069 C148.388344,24.0720786 150.251588,27.250554 153.758871,27.250554 Z" id="Combined-Shape" fill="#FFE546"></path>
                <path d="M179.077072,32.4384104 C171.258753,32.4384104 168.262949,26.3006648 168.262949,19.3591668 C168.262949,13.6598316 171.8433,6.974073 178.273319,6.974073 C185.543625,6.974073 189.270114,12.6734082 189.270114,19.5053036 C189.270114,25.6430492 186.01857,32.4384104 179.077072,32.4384104 Z M178.784798,27.250554 C183.095834,27.250554 184.228394,22.9760526 184.228394,19.4322352 C184.228394,16.107623 183.205436,11.8696558 179.004003,11.8696558 C174.218023,11.8696558 173.414271,17.1305806 173.414271,20.857069 C173.414271,24.0720786 175.277515,27.250554 178.784798,27.250554 Z" id="Combined-Shape" fill="#FFE546"></path>
                <path d="M57.7412507,64.2306091 L57.3804503,60.106641 C57.1532796,57.5100684 51.3996649,50.5027015 50.0219901,47.4219321 C50.3526719,47.3314377 50.7139017,47.2382707 51.0804766,47.2061996 C52.1191056,47.1153313 53.1657524,47.1161068 54.1963636,46.9335948 C55.8180479,49.2850362 57.47028,51.6338051 58.7188947,54.2949215 L58.963278,54.2735407 C60.3074139,51.6934054 61.3472199,48.8012964 62.6608078,46.2238336 L63.2690935,46.1398338 L65.865666,45.9126631 C66.1711451,45.8859372 66.5457379,45.9455097 66.8538896,45.9493317 C66.2654337,48.3710084 61.1550561,57.1599584 61.2833407,58.6262581 L61.6521589,62.84187 C61.7724258,64.216526 62.0122116,65.5499438 62.0102868,66.9352902 C61.1683082,67.1628624 60.1296792,67.2537307 59.2437898,67.331236 C58.8772148,67.3633071 58.5079673,67.3648304 58.1360472,67.3358057 C57.8951119,66.3410876 57.832119,65.2692381 57.7412507,64.2306091 Z" id="Path" fill="#FEFEFE"></path>
                <path d="M79.7097414,65.8792963 C73.1724883,66.4512318 70.2185634,61.5383355 69.7107701,55.7342322 C69.2938452,50.968758 71.7984555,45.1165757 77.174888,44.6461988 C83.2539224,44.1143522 86.7867344,48.6072217 87.2865099,54.3196812 C87.735506,59.4517304 85.5138447,65.3715031 79.7097414,65.8792963 Z M79.0858495,61.5628736 C82.6905031,61.2475073 83.3247947,57.5905511 83.0655528,54.6274036 C82.8223466,51.8475436 81.6569839,48.3788185 78.1439741,48.6861671 C74.1421976,49.0362771 73.8549974,53.4939736 74.1276022,56.6098606 C74.3627906,59.2980768 76.15325,61.8194428 79.0858495,61.5628736 Z" id="Combined-Shape" fill="#FEFEFE"></path>
                <path d="M102.818586,53.8226892 L102.268031,47.5298193 C102.139747,46.0635195 101.19891,42.6982779 102.670555,42.6310891 L103.40905,42.6280426 L105.947199,42.4367651 C106.172473,43.9561429 106.430967,45.503396 106.567269,47.0613395 C107.123169,53.4153052 108.999844,63.2551809 100.049306,64.0382516 C90.4267133,64.8801193 91.5681889,53.2986664 90.9962533,46.7614133 C90.9107303,45.7838801 90.7919867,44.7784716 90.7981073,43.7929206 L91.9841307,43.6275935 L93.8170054,43.4672378 L94.9526234,43.4294476 L95.0874025,44.6181435 C95.3176197,47.9532111 94.8458995,60.1532661 99.8863049,59.7122878 C103.002192,59.439683 103.029721,56.2359742 102.818586,53.8226892 Z" id="Path" fill="#FEFEFE"></path>
                <path d="M129.790038,57.0652684 L129.933611,57.2989613 C130.152016,58.3879958 130.520488,59.4331193 130.616701,60.5328442 C130.699552,61.4798294 128.616948,61.6004701 127.914346,61.6619398 C124.615172,61.9505802 122.605532,59.3868266 121.097648,56.2251039 L120.251875,54.2982867 C119.739055,54.066117 119.191865,54.1447717 118.642003,54.1928784 C118.153236,54.2356399 117.633922,54.2810741 117.1505,54.3849314 C117.142856,55.0012349 117.198981,55.642741 117.252433,56.2536992 C117.448682,58.1449972 117.77514,60.1172485 117.757553,62.0272546 C116.765508,62.2987377 115.821195,62.4121361 114.813114,62.5003318 L113.557977,62.5793603 C112.858823,61.6247311 111.793635,46.6348735 111.574482,44.1299447 C111.513012,43.4273428 111.451542,42.7247408 111.514937,42.0419964 C112.776568,41.685364 114.253559,41.6792711 115.536571,41.567022 C120.363141,41.1447519 126.844643,40.6392573 127.411234,47.1154147 C127.641077,49.7425351 126.550118,51.3462866 124.209367,53.0901625 C125.007407,55.1750644 127.003684,57.5860784 128.370322,57.3741679 C128.734224,57.3115488 129.169913,57.3657762 129.790038,57.0652684 Z M116.61101,48.9222004 L116.768693,50.7245272 C116.940141,50.9249996 117.220417,50.962042 117.4648,50.9406613 C119.66425,50.7482344 123.221171,50.5909528 122.953911,47.5361616 C122.697342,44.6035621 119.289339,45.0556324 117.181533,45.2400415 C116.173452,45.3282372 116.36628,45.7730929 116.441113,46.6284344 C116.507928,47.3921322 116.546868,48.1890505 116.61101,48.9222004 Z" id="Combined-Shape" fill="#FEFEFE"></path>
                <path d="M132.220508,56.6987212 C132.357212,56.5020707 133.077401,54.5305949 135.061492,53.9876286 C135.932467,55.8506774 138.050188,56.8351067 139.913611,56.6720783 C141.624294,56.522413 142.421987,55.4368266 142.312411,54.1843622 C141.956956,50.1214899 132.417214,51.9103429 131.847951,45.4036377 C131.500514,41.4324091 134.894406,39.4117049 138.071389,39.1337549 C141.003988,38.8771857 144.736927,40.0281192 145.033585,43.4189374 C144.741469,43.5984029 142.518713,44.9317929 142.085697,44.9081135 C141.071523,43.519319 139.738881,42.712458 138.211485,42.8460878 C136.68409,42.9797176 136.153309,43.9496069 136.233487,44.8660443 C136.546181,48.44015 146.056898,47.0232171 146.658232,53.8964973 C146.978944,57.5622467 144.479333,60.3050365 140.263721,60.6738548 C134.704001,61.1602673 132.461069,56.9854921 132.220508,56.6987212 Z" id="Path" fill="#FEFEFE"></path>
                <path d="M132.18996,56.7013938 C132.192633,56.7319417 132.192633,56.7319417 132.220508,56.6987212 L132.18996,56.7013938 Z" id="Path" fill="#FEFEFE"></path>
                <path d="M164.909017,58.0867265 L160.204639,58.4983062 C157.54697,58.7308221 154.429934,59.3421265 151.851696,59.0751854 C150.783724,53.9049444 150.669633,46.6196551 150.191238,41.1515789 L150.035854,38.6718528 C150.822082,38.5107216 151.646875,38.4385615 152.471669,38.3664014 L161.758234,37.5539322 L163.229879,37.4867434 C163.344427,38.0923565 163.431099,38.73119 163.484551,39.3421483 C163.535331,39.9225586 163.58611,40.5029689 163.575793,41.0887244 C163.059151,41.1647065 162.456211,41.3098021 161.936897,41.3552363 C159.493064,41.569044 157.030522,41.5690163 154.649309,42.1467263 C154.622956,42.5491943 154.6577,42.9463172 154.692444,43.34344 L154.990251,46.3955586 C157.147313,46.4223123 159.083672,46.0374308 161.680244,45.8102601 C161.74134,45.8049149 161.85971,46.1023763 161.950204,46.4330581 L161.991415,49.0151183 C162.026158,49.4122411 161.051298,49.5283121 160.379244,49.5871092 C158.760204,49.7287568 156.955205,49.8558921 155.341511,50.0586355 L155.427408,51.7441158 L155.667942,54.4934279 C157.306063,55.2735629 162.157462,54.0795771 164.589455,54.0822774 C164.770444,54.7436411 164.862461,55.4435705 164.921259,56.1156245 C164.980056,56.7876786 164.944536,57.4372025 164.909017,58.0867265 Z" id="Path" fill="#FEFEFE"></path>
                <path d="M167.868938,39.1432545 L167.753643,37.1217471 C168.600966,36.9552707 169.545279,36.8418723 170.400621,36.7670396 C170.828291,36.7296233 171.258635,36.7227549 171.691651,36.7464343 C172.348389,40.3827852 172.59082,44.209292 172.911532,47.8750414 C173.066542,49.6468203 173.21888,51.3880513 173.434987,53.154485 C176.194989,53.036143 179.017237,52.5737562 181.760054,52.6108264 C181.984954,53.422257 182.152953,54.6388283 182.225114,55.4636219 C182.254512,55.799649 182.253363,56.1383486 182.221665,56.4797208 C181.616052,56.5942685 181.007767,56.6782684 180.396809,56.7317203 C176.822703,57.044414 173.198192,57.4846446 169.594687,57.4613113 C168.523669,51.5525752 168.390094,45.1000973 167.868938,39.1432545 Z" id="Path" fill="#FEFEFE"></path>
                <path d="M196.372328,45.8224877 L196.455552,47.4774202 C195.816719,47.5640926 195.144665,47.6228897 194.503159,47.6790142 C192.823023,47.826007 191.140216,47.9424519 189.498646,48.1784158 C189.626155,50.6913623 190.097709,53.2665541 189.950287,55.803554 C189.466866,55.9074114 188.950224,55.9833934 188.461457,56.026155 C187.606116,56.1009876 186.623237,56.1254149 185.759878,56.1086038 C185.448306,54.6583396 185.337206,53.0366277 185.206249,51.53978 L184.762598,46.4688267 C184.447232,42.864173 184.037549,39.2369893 183.966566,35.6109549 C187.247032,35.1084792 190.651214,34.9645606 193.950388,34.6759202 C195.325044,34.5556534 196.702373,34.4659345 198.054499,34.439984 C198.220975,35.2873078 198.306498,36.2648409 198.381331,37.1201825 L198.419121,38.2558004 C197.9357,38.3596578 197.419058,38.4356398 196.930291,38.4784013 C194.242075,38.7135898 191.4794,38.8013839 188.809892,39.2504077 C188.880903,40.4139009 188.89349,41.6132873 188.995049,42.774108 L189.187102,44.2656104 C189.900394,44.3263324 190.636217,44.292738 191.369367,44.2285957 C192.957858,44.0896207 194.515801,43.9533183 196.112311,43.905987 C196.229531,44.542148 196.316203,45.1809816 196.372328,45.8224877 Z" id="Path" fill="#FEFEFE"></path>
                <path d="M238.690876,36.1502251 C236.370978,35.8784126 234.068155,35.4463148 231.764219,35.0654037 C229.888831,28.0089277 227.255177,20.8780068 224.289116,21.0015834 C221.389034,21.1224512 218.369613,27.7745711 216.062428,34.4484548 C213.709958,35.0752114 211.317305,35.5513036 208.939964,36.0706429 C207.293977,36.4302573 207.990531,38.9715639 209.636054,38.6120428 C211.450287,38.2157197 213.273428,37.8449899 215.080887,37.4129855 C213.281224,43.078641 212.109628,48.0321666 212.109628,48.0321666 L217.513536,48.192265 L217.045826,52.1378426 C216.950521,52.1279416 216.854009,52.1212163 216.756291,52.1198152 C215.095828,52.0950625 213.731209,53.339889 213.708287,54.9001486 C214.510076,54.9121046 215.556763,54.9277969 216.712954,54.9450771 L216.711655,54.9560056 L219.794922,55 L220.636058,48.2846439 L225.760639,48.4364292 L226.582751,55 L229.666019,54.9560056 L229.66472,54.9450771 C230.821003,54.9277969 231.867783,54.9121046 232.669479,54.9001486 C232.646465,53.339889 231.281846,52.0950625 229.621475,52.1198152 C229.523664,52.1212163 229.427245,52.1279416 229.33194,52.1378426 L228.904134,48.5295554 L234.691212,48.700956 C234.691212,48.700956 233.865666,43.6377715 232.466619,37.8409734 C234.536143,38.1899395 236.606874,38.5417078 238.690876,38.785872 C239.394297,38.8683498 240,38.1211925 240,37.4680019 C240,36.6872182 239.396431,36.2329831 238.690876,36.1502251 Z" id="Stroke-1" fill="#FFE546"></path>
                <polygon id="Fill-1" fill="#FFE546" points="230.952371 2.09921296 225.366157 18.226845 224.063399 0.794412417"></polygon>
                <polygon id="Fill-4" fill="#FEC10E" points="208.565788 12.9873607 212.739979 8.21731829 220.97124 19.5445656"></polygon>
            </g>
        </g>
    </g>
</svg>